
<svg xmlns="http://www.w3.org/2000/svg" xmlns:xlink="http://www.w3.org/1999/xlink" width="160" zoomAndPan="magnify" viewBox="0 0 120 119.999999" height="160" preserveAspectRatio="xMidYMid meet" version="1.0"><defs><clipPath id="3ece863961"><path d="M 0 0 L 120 0 L 120 118.820312 L 0 118.820312 Z M 0 0 " clip-rule="nonzero"/></clipPath><clipPath id="5ffacdc54f"><path d="M 35.25 0 L 84.75 0 C 94.097656 0 103.066406 3.714844 109.675781 10.324219 C 116.285156 16.933594 120 25.902344 120 35.25 L 120 83.570312 C 120 92.917969 116.285156 101.882812 109.675781 108.496094 C 103.066406 115.105469 94.097656 118.820312 84.75 118.820312 L 35.25 118.820312 C 25.902344 118.820312 16.933594 115.105469 10.324219 108.496094 C 3.714844 101.882812 0 92.917969 0 83.570312 L 0 35.25 C 0 25.902344 3.714844 16.933594 10.324219 10.324219 C 16.933594 3.714844 25.902344 0 35.25 0 Z M 35.25 0 " clip-rule="nonzero"/></clipPath><clipPath id="f2c5bc530f"><path d="M 22.453125 15.203125 L 112.453125 15.203125 L 112.453125 118.703125 L 22.453125 118.703125 Z M 22.453125 15.203125 " clip-rule="nonzero"/></clipPath></defs><g clip-path="url(#3ece863961)"><g clip-path="url(#5ffacdc54f)"><path fill="#4f8e34" d="M 0 0 L 120.210938 0 L 120.210938 118.820312 L 0 118.820312 Z M 0 0 " fill-opacity="1" fill-rule="nonzero"/></g></g><g clip-path="url(#f2c5bc530f)"><path fill="#ffffff" d="M 23.714844 15.394531 C 23.761719 15.332031 23.808594 15.265625 23.859375 15.203125 C 24.207031 15.527344 24.648438 15.738281 25.109375 15.835938 C 25.488281 15.921875 25.894531 15.90625 26.261719 15.769531 C 26.6875 16 27.027344 16.355469 27.464844 16.566406 L 29.40625 17.441406 C 29.480469 17.472656 29.554688 17.503906 29.617188 17.554688 C 30.066406 17.917969 30.519531 18.277344 30.980469 18.628906 C 31.335938 18.910156 31.703125 19.1875 32.003906 19.53125 C 32.164062 19.699219 32.214844 19.9375 32.3125 20.140625 C 32.542969 20.734375 32.847656 21.292969 33.128906 21.863281 L 34.089844 23.785156 C 34.40625 24.398438 34.675781 25.035156 34.96875 25.660156 C 35.035156 25.800781 35.082031 25.945312 35.167969 26.070312 C 35.492188 26.523438 35.8125 26.984375 36.140625 27.441406 C 36.167969 27.476562 36.1875 27.519531 36.203125 27.566406 C 36.429688 28.207031 36.65625 28.847656 36.878906 29.488281 C 36.929688 29.628906 36.984375 29.765625 37.019531 29.910156 C 37.210938 30.753906 37.40625 31.597656 37.601562 32.441406 C 37.625 32.554688 37.648438 32.671875 37.691406 32.78125 C 37.941406 33.480469 38.1875 34.175781 38.4375 34.875 C 38.472656 34.976562 38.503906 35.082031 38.5625 35.171875 C 39.261719 36.386719 39.953125 37.609375 40.703125 38.789062 C 40.898438 39.136719 41.113281 39.472656 41.324219 39.804688 C 41.539062 40.136719 41.761719 40.46875 42.03125 40.761719 C 42.132812 40.875 42.25 40.984375 42.390625 41.050781 C 42.421875 41.035156 42.457031 41.019531 42.492188 41.007812 C 42.890625 40.238281 42.96875 39.363281 43.109375 38.523438 C 43.164062 38.195312 43.226562 37.863281 43.277344 37.53125 C 43.296875 37.382812 43.339844 37.234375 43.320312 37.082031 C 43.273438 36.757812 43.132812 36.453125 42.96875 36.171875 C 42.734375 35.773438 42.441406 35.40625 42.128906 35.066406 C 42.046875 34.972656 41.933594 34.921875 41.84375 34.832031 C 41.492188 34.546875 41.152344 34.246094 40.796875 33.960938 C 40.582031 33.792969 40.394531 33.554688 40.375 33.273438 C 40.351562 33.078125 40.5 32.925781 40.628906 32.796875 C 40.765625 32.699219 40.96875 32.679688 41.046875 32.511719 C 41.128906 32.371094 41.035156 32.222656 41 32.085938 C 40.964844 31.964844 41.039062 31.832031 41.148438 31.78125 C 41.285156 31.753906 41.414062 31.828125 41.539062 31.871094 C 41.453125 31.714844 41.320312 31.570312 41.320312 31.378906 C 41.3125 31.25 41.417969 31.15625 41.515625 31.082031 C 41.609375 31.078125 41.710938 31.128906 41.808594 31.097656 C 41.917969 31.03125 41.96875 30.867188 41.882812 30.761719 C 41.789062 30.613281 41.792969 30.417969 41.878906 30.269531 C 41.921875 30.203125 42.003906 30.191406 42.074219 30.179688 C 42.359375 30.160156 42.640625 30.152344 42.917969 30.113281 C 43.113281 30.058594 43.316406 30.074219 43.511719 30.019531 C 43.464844 29.941406 43.40625 29.878906 43.347656 29.8125 C 43.347656 29.6875 43.351562 29.566406 43.355469 29.441406 C 43.40625 29.617188 43.535156 29.792969 43.710938 29.828125 C 43.890625 29.636719 44.015625 29.402344 44.207031 29.222656 C 44.121094 28.742188 44.292969 28.25 44.566406 27.859375 C 44.636719 27.75 44.75 27.675781 44.824219 27.570312 C 44.960938 27.390625 45.15625 27.265625 45.355469 27.175781 C 45.691406 27.027344 46.058594 26.960938 46.417969 26.910156 C 47.441406 26.765625 48.515625 26.890625 49.464844 27.316406 C 49.5625 27.363281 49.679688 27.339844 49.78125 27.378906 C 50.414062 27.699219 51.054688 28.015625 51.605469 28.472656 C 52.335938 29.046875 52.890625 29.804688 53.414062 30.566406 C 53.554688 30.933594 53.683594 31.304688 53.816406 31.671875 C 53.898438 31.894531 53.917969 32.140625 53.976562 32.375 C 54.007812 32.5 54.058594 32.625 54.152344 32.714844 C 54.363281 32.910156 54.574219 33.109375 54.78125 33.308594 C 54.78125 33.617188 54.800781 33.925781 54.792969 34.230469 C 54.664062 34.707031 54.453125 35.160156 54.226562 35.597656 C 54.027344 35.96875 53.8125 36.328125 53.546875 36.652344 C 53.425781 36.78125 53.320312 36.957031 53.136719 37.003906 C 52.71875 37.078125 52.289062 36.976562 51.871094 37.046875 C 51.316406 37.214844 50.925781 37.691406 50.40625 37.929688 C 50.121094 38.074219 49.835938 38.214844 49.550781 38.359375 C 49.265625 38.519531 48.929688 38.574219 48.625 38.679688 C 48.503906 38.875 48.375 39.0625 48.261719 39.261719 C 48.484375 39.601562 48.738281 39.933594 49.074219 40.167969 C 49.175781 40.230469 49.28125 40.285156 49.355469 40.382812 C 49.878906 39.933594 50.398438 39.476562 50.910156 39.015625 C 50.992188 38.945312 51.066406 38.863281 51.160156 38.8125 C 51.707031 38.527344 52.257812 38.242188 52.800781 37.953125 C 53.300781 37.664062 53.808594 37.394531 54.324219 37.136719 C 54.96875 36.8125 55.632812 36.527344 56.285156 36.222656 C 56.515625 36.101562 56.777344 36.027344 56.980469 35.859375 C 57.507812 35.46875 58.035156 35.078125 58.5625 34.691406 C 60.078125 33.597656 61.472656 32.347656 62.914062 31.164062 C 63.101562 31.023438 63.230469 30.832031 63.386719 30.664062 C 63.851562 30.128906 64.320312 29.59375 64.785156 29.054688 C 64.851562 28.96875 64.960938 28.925781 65.054688 28.871094 C 65.589844 28.566406 66.132812 28.261719 66.667969 27.953125 C 68.125 27.074219 69.585938 26.195312 71.042969 25.316406 C 71.777344 24.789062 72.507812 24.257812 73.238281 23.730469 C 73.335938 23.601562 73.492188 23.539062 73.625 23.449219 C 74.445312 22.941406 75.253906 22.398438 76.171875 22.082031 C 76.976562 21.816406 77.84375 21.886719 78.679688 21.800781 C 80.699219 21.546875 82.71875 21.339844 84.746094 21.175781 C 84.867188 21.429688 84.722656 21.742188 84.496094 21.882812 C 84.148438 21.996094 83.792969 22.097656 83.441406 22.203125 C 83.382812 22.226562 83.308594 22.226562 83.265625 22.28125 C 83.585938 22.4375 83.941406 22.5 84.296875 22.527344 C 84.605469 22.554688 84.921875 22.5625 85.222656 22.652344 C 85.234375 22.710938 85.242188 22.769531 85.257812 22.828125 C 85.042969 23.035156 84.726562 23.066406 84.441406 23.085938 C 83.792969 23.117188 83.144531 23.011719 82.515625 22.871094 C 82.179688 22.792969 81.851562 22.695312 81.539062 22.546875 C 81.109375 22.878906 80.636719 23.160156 80.210938 23.503906 C 80.703125 23.75 81.253906 23.886719 81.714844 24.210938 C 81.921875 24.355469 82.097656 24.582031 82.085938 24.847656 C 82.105469 24.984375 82.011719 25.128906 81.875 25.160156 C 81.707031 25.175781 81.539062 25.121094 81.386719 25.054688 C 81.089844 24.917969 80.824219 24.71875 80.539062 24.558594 C 80.335938 24.441406 80.125 24.320312 79.886719 24.292969 C 78.847656 24.128906 77.808594 23.964844 76.765625 23.796875 C 76.027344 24.351562 75.285156 24.90625 74.550781 25.464844 C 74.132812 25.824219 73.746094 26.214844 73.355469 26.605469 C 72.519531 27.441406 71.671875 28.261719 70.753906 29.003906 C 70.230469 29.472656 69.726562 29.960938 69.203125 30.429688 C 68.355469 30.96875 67.5 31.503906 66.648438 32.039062 C 66.480469 32.160156 66.285156 32.242188 66.144531 32.394531 C 64.832031 33.699219 63.5 34.988281 62.179688 36.289062 C 61.699219 36.773438 61.21875 37.265625 60.730469 37.753906 C 59.738281 38.625 58.742188 39.5 57.746094 40.375 C 57.371094 40.714844 56.976562 41.035156 56.621094 41.398438 C 55.914062 42.09375 55.179688 42.757812 54.460938 43.4375 C 54.394531 43.507812 54.296875 43.558594 54.269531 43.660156 C 54.09375 44.234375 53.863281 44.796875 53.710938 45.382812 C 53.425781 46.464844 53.125 47.546875 52.828125 48.625 C 52.757812 48.882812 52.742188 49.152344 52.726562 49.417969 C 52.699219 50.207031 52.773438 50.996094 52.792969 51.785156 C 53.121094 52.054688 53.453125 52.320312 53.789062 52.589844 C 55.023438 52.585938 56.261719 52.582031 57.496094 52.570312 C 58.007812 52.507812 58.519531 52.515625 59.027344 52.550781 C 59.285156 52.570312 59.542969 52.621094 59.800781 52.621094 C 60.058594 52.621094 60.3125 52.660156 60.570312 52.632812 C 60.878906 52.679688 61.203125 52.625 61.480469 52.476562 C 62.953125 51.707031 64.421875 50.933594 65.898438 50.164062 C 65.976562 50.128906 66.050781 50.070312 66.140625 50.0625 C 66.355469 50.042969 66.566406 49.988281 66.773438 49.921875 C 66.863281 49.894531 66.929688 49.824219 67.003906 49.769531 C 67.472656 49.398438 67.945312 49.027344 68.414062 48.65625 C 68.886719 48.292969 69.339844 47.90625 69.839844 47.582031 C 70.929688 46.851562 72.097656 46.238281 73.34375 45.828125 C 73.609375 45.75 73.871094 45.648438 74.148438 45.65625 C 74.429688 45.625 74.726562 45.664062 74.996094 45.558594 C 75.582031 45.359375 76.121094 45.039062 76.722656 44.886719 C 76.96875 44.828125 77.25 44.789062 77.484375 44.902344 C 77.578125 45.117188 77.632812 45.34375 77.75 45.550781 C 77.90625 45.488281 78.0625 45.414062 78.21875 45.347656 C 78.296875 45.394531 78.382812 45.4375 78.445312 45.507812 C 78.542969 45.667969 78.398438 45.871094 78.5 46.03125 C 78.714844 46.414062 78.925781 46.800781 79.140625 47.183594 C 79.003906 47.59375 78.605469 47.832031 78.238281 48.011719 C 78.882812 47.84375 79.53125 47.671875 80.179688 47.511719 C 80.863281 47.332031 81.5625 47.191406 82.253906 47.042969 C 82.375 47.015625 82.492188 46.996094 82.605469 46.960938 C 83.683594 46.550781 84.757812 46.140625 85.835938 45.730469 C 85.992188 45.679688 86.160156 45.65625 86.320312 45.617188 C 87.355469 45.394531 88.390625 45.167969 89.425781 44.945312 C 89.820312 44.867188 90.207031 44.753906 90.609375 44.714844 C 92.523438 44.464844 94.4375 44.238281 96.351562 44.003906 C 98.222656 43.621094 100.066406 43.097656 101.859375 42.4375 C 102.324219 42.277344 102.769531 42.050781 103.164062 41.757812 C 103.8125 41.285156 104.332031 40.675781 104.832031 40.058594 C 105.121094 39.761719 105.421875 39.472656 105.714844 39.175781 C 105.886719 38.976562 106.058594 38.773438 106.25 38.589844 C 107.027344 37.824219 107.910156 37.164062 108.867188 36.632812 C 109.472656 36.300781 110.117188 36.015625 110.796875 35.890625 C 110.917969 35.859375 111.007812 35.964844 111.109375 36.007812 C 111.628906 36.308594 111.980469 36.808594 112.273438 37.316406 C 112.222656 37.878906 111.988281 38.398438 111.679688 38.863281 C 111.507812 39.125 111.3125 39.375 111.128906 39.625 C 110.90625 39.910156 110.71875 40.21875 110.511719 40.519531 C 110.457031 40.59375 110.371094 40.632812 110.296875 40.6875 C 109.984375 40.898438 109.667969 41.101562 109.355469 41.320312 C 108.445312 42.070312 107.527344 42.820312 106.621094 43.578125 C 106.367188 43.777344 106.105469 43.96875 105.8125 44.117188 C 105.25 44.386719 104.652344 44.566406 104.050781 44.730469 C 102.652344 45.109375 101.203125 45.324219 99.859375 45.878906 C 99.628906 45.996094 99.421875 46.148438 99.203125 46.28125 C 98.085938 46.972656 96.992188 47.703125 95.839844 48.339844 C 94.527344 49.082031 93.171875 49.75 91.832031 50.445312 C 91.515625 50.609375 91.203125 50.773438 90.882812 50.933594 C 90.296875 51.171875 89.675781 51.289062 89.070312 51.425781 C 87.945312 51.6875 86.835938 51.988281 85.75 52.375 C 85.5625 52.445312 85.363281 52.5 85.191406 52.609375 C 84.4375 53.042969 83.683594 53.476562 82.925781 53.90625 C 82.789062 53.976562 82.65625 54.074219 82.507812 54.125 C 80.832031 54.738281 79.160156 55.347656 77.484375 55.957031 C 77.335938 56.003906 77.210938 56.089844 77.082031 56.164062 C 76.582031 56.441406 76.085938 56.726562 75.585938 57.003906 C 75.074219 57.253906 74.5625 57.496094 74.054688 57.75 C 74.128906 58.253906 74.25 58.757812 74.234375 59.269531 C 74.199219 60.082031 73.613281 60.777344 73.691406 61.605469 C 73.550781 61.722656 73.367188 61.757812 73.191406 61.769531 C 73.109375 61.78125 72.996094 61.78125 72.953125 61.867188 C 72.863281 62.019531 72.78125 62.175781 72.691406 62.324219 C 72.273438 62.246094 71.855469 62.171875 71.4375 62.101562 C 71.257812 62.308594 71.125 62.566406 70.898438 62.730469 C 70.71875 62.867188 70.476562 62.808594 70.273438 62.875 C 69.925781 63.148438 69.585938 63.433594 69.242188 63.714844 C 69.261719 63.824219 69.28125 63.929688 69.300781 64.042969 C 67.359375 64.820312 65.519531 65.824219 63.722656 66.894531 C 63.710938 67.105469 63.722656 67.320312 63.683594 67.53125 C 63.523438 68.566406 63.386719 69.605469 63.210938 70.636719 C 63.1875 72.070312 63.175781 73.5 63.152344 74.933594 C 63.136719 75.605469 63.160156 76.277344 63.097656 76.949219 C 62.90625 79.695312 62.710938 82.441406 62.519531 85.183594 C 62.511719 85.296875 62.488281 85.410156 62.511719 85.523438 C 62.621094 86.011719 62.730469 86.492188 62.839844 86.980469 C 62.890625 87.253906 62.980469 87.519531 62.992188 87.796875 C 63.050781 88.6875 63.117188 89.574219 63.167969 90.464844 C 63.160156 91.8125 63.1875 93.15625 63.210938 94.503906 C 63.210938 94.617188 63.179688 94.734375 63.160156 94.84375 C 62.835938 96.359375 62.371094 97.84375 61.847656 99.304688 C 61.402344 100.558594 60.917969 101.796875 60.46875 103.046875 C 60.140625 103.980469 59.851562 104.925781 59.542969 105.867188 C 59.421875 106.296875 59.480469 106.769531 59.707031 107.152344 C 59.96875 107.605469 60.382812 107.933594 60.742188 108.304688 C 60.925781 108.484375 61.066406 108.707031 61.210938 108.917969 C 61.253906 109.089844 61.199219 109.265625 61.148438 109.425781 C 60.988281 109.878906 60.738281 110.300781 60.457031 110.691406 C 60.273438 110.957031 60 111.128906 59.761719 111.339844 C 59.617188 111.476562 59.4375 111.570312 59.34375 111.75 C 59.171875 112.03125 59.082031 112.347656 59.011719 112.660156 C 58.953125 112.957031 58.886719 113.257812 58.84375 113.5625 C 58.832031 113.675781 58.789062 113.792969 58.808594 113.910156 C 58.941406 114.734375 59.140625 115.546875 59.207031 116.378906 C 59.242188 116.960938 59.226562 117.566406 58.964844 118.101562 C 58.867188 118.28125 58.753906 118.457031 58.640625 118.636719 C 58.371094 118.691406 58.101562 118.753906 57.835938 118.808594 C 57.574219 118.628906 57.308594 118.453125 57.046875 118.277344 C 56.910156 118.207031 56.886719 118.046875 56.8125 117.925781 C 56.574219 117.425781 56.28125 116.945312 56.066406 116.433594 C 55.558594 115.253906 55.234375 114.007812 54.964844 112.757812 C 54.929688 112.613281 54.941406 112.460938 54.933594 112.316406 C 54.921875 111.800781 54.917969 111.289062 54.902344 110.777344 C 54.894531 110.34375 54.890625 109.90625 54.984375 109.484375 C 55.363281 108.058594 55.75 106.632812 56.128906 105.210938 C 56.195312 104.925781 56.304688 104.65625 56.328125 104.367188 C 56.394531 103.84375 56.464844 103.320312 56.535156 102.800781 C 56.820312 101.3125 56.878906 99.796875 57.089844 98.300781 C 57.125 98.015625 57.191406 97.734375 57.203125 97.449219 C 57.277344 96.640625 57.332031 95.824219 57.425781 95.015625 C 57.589844 93.472656 57.765625 91.925781 57.921875 90.378906 C 57.652344 89.316406 57.359375 88.257812 57.085938 87.195312 C 56.816406 85.503906 56.558594 83.808594 56.28125 82.121094 C 56.25 82.125 56.195312 82.132812 56.167969 82.140625 C 55.71875 80.546875 55.269531 78.957031 54.828125 77.363281 C 54.785156 76.457031 54.769531 75.546875 54.734375 74.640625 C 54.707031 73.734375 54.679688 72.828125 54.648438 71.921875 C 54.351562 72.066406 54.101562 72.273438 53.839844 72.464844 C 53.777344 72.511719 53.71875 72.566406 53.644531 72.582031 C 53.488281 72.621094 53.328125 72.65625 53.167969 72.691406 C 53.078125 72.816406 52.992188 72.941406 52.902344 73.066406 C 52.847656 73.144531 52.757812 73.179688 52.683594 73.226562 C 52.578125 73.296875 52.464844 73.351562 52.367188 73.421875 C 52.296875 73.542969 52.296875 73.679688 52.28125 73.8125 C 52.246094 74.339844 52.265625 74.871094 52.296875 75.398438 C 52.175781 75.59375 51.960938 75.695312 51.75 75.753906 C 51.292969 75.878906 50.808594 75.886719 50.355469 76.035156 C 50.164062 76.09375 49.976562 76.195312 49.84375 76.347656 C 49.539062 76.691406 49.363281 77.125 49.234375 77.558594 C 49.0625 78.140625 48.957031 78.746094 48.734375 79.3125 C 48.582031 79.703125 48.363281 80.070312 48.054688 80.355469 C 47.863281 80.207031 47.625 80.140625 47.402344 80.050781 C 47.226562 79.976562 47.074219 79.859375 46.953125 79.714844 C 46.734375 79.804688 46.515625 79.890625 46.296875 79.980469 C 46.046875 79.761719 45.804688 79.527344 45.558594 79.304688 C 45.242188 79.800781 44.640625 79.992188 44.296875 80.457031 C 43.949219 80.257812 43.699219 79.925781 43.527344 79.570312 C 43.3125 79.570312 43.097656 79.578125 42.882812 79.582031 C 42.835938 79.578125 42.777344 79.589844 42.738281 79.554688 C 42.585938 79.4375 42.464844 79.273438 42.410156 79.085938 C 42.339844 78.875 42.351562 78.648438 42.363281 78.429688 C 42.015625 78.195312 41.578125 78.175781 41.195312 78.015625 C 41.375 77.375 41.558594 76.734375 41.742188 76.09375 C 41.910156 75.375 42.074219 74.65625 42.238281 73.9375 C 42.261719 73.847656 42.269531 73.746094 42.324219 73.664062 C 43.019531 72.601562 43.714844 71.535156 44.414062 70.46875 C 44.515625 70.324219 44.585938 70.15625 44.675781 69.996094 C 45.304688 68.777344 45.933594 67.5625 46.566406 66.347656 C 46.859375 65.878906 47.359375 65.597656 47.679688 65.15625 C 47.984375 64.667969 48.222656 64.136719 48.578125 63.683594 C 48.667969 63.554688 48.761719 63.429688 48.851562 63.300781 C 48.402344 62.863281 47.953125 62.417969 47.503906 61.980469 C 47.363281 61.839844 47.203125 61.722656 47.058594 61.597656 C 46.5625 61.171875 46.097656 60.71875 45.664062 60.226562 C 45.3125 59.792969 44.902344 59.410156 44.515625 59.003906 C 44.046875 58.515625 43.566406 58.03125 43.101562 57.539062 C 42.511719 56.75 41.929688 55.953125 41.34375 55.164062 C 41.179688 54.957031 41.039062 54.722656 40.851562 54.535156 C 40.449219 54.09375 40.039062 53.65625 39.640625 53.210938 C 39.4375 52.769531 39.25 52.320312 39.054688 51.875 C 38.988281 51.574219 38.96875 51.269531 38.90625 50.964844 C 38.757812 50.238281 38.691406 49.488281 38.792969 48.753906 C 38.832031 48.5 38.832031 48.242188 38.847656 47.984375 C 38.863281 47.769531 38.851562 47.550781 38.90625 47.34375 C 39.070312 46.628906 39.285156 45.910156 39.234375 45.164062 C 39.21875 44.816406 39.054688 44.503906 38.921875 44.191406 C 38.566406 43.382812 38.15625 42.597656 37.753906 41.808594 C 37.351562 41.003906 36.972656 40.183594 36.554688 39.390625 C 36.40625 39.101562 36.25 38.816406 36.109375 38.523438 C 35.34375 36.289062 34.582031 34.046875 33.816406 31.808594 C 33.074219 29.898438 32.316406 27.984375 31.6875 26.03125 C 31.597656 25.75 31.5 25.472656 31.433594 25.1875 C 31.132812 23.992188 30.832031 22.796875 30.535156 21.601562 C 30.503906 21.476562 30.4375 21.363281 30.382812 21.246094 C 30.148438 20.75 29.917969 20.257812 29.6875 19.765625 C 29.597656 19.566406 29.449219 19.40625 29.3125 19.242188 C 29.039062 18.929688 28.71875 18.613281 28.292969 18.53125 C 27.988281 18.546875 27.6875 18.59375 27.378906 18.609375 C 27.003906 18.488281 26.636719 18.347656 26.261719 18.222656 C 25.710938 18.078125 25.140625 18.246094 24.59375 18.132812 C 24.550781 18.03125 24.503906 17.929688 24.460938 17.824219 C 24.636719 17.613281 24.910156 17.542969 25.171875 17.523438 C 25.558594 17.503906 25.945312 17.554688 26.332031 17.566406 C 26.332031 17.496094 26.332031 17.421875 26.335938 17.351562 C 26.023438 17.160156 25.707031 16.976562 25.386719 16.789062 C 25.257812 16.707031 25.097656 16.6875 24.941406 16.699219 C 24.300781 16.757812 23.710938 17.109375 23.054688 17.097656 C 22.835938 17.101562 22.625 17.015625 22.464844 16.863281 C 22.492188 16.792969 22.519531 16.722656 22.546875 16.648438 C 23.023438 16.65625 23.535156 16.632812 23.9375 16.339844 C 23.539062 16.15625 23.109375 16.0625 22.722656 15.863281 L 22.722656 15.558594 C 23.164062 15.65625 23.597656 15.769531 24.035156 15.863281 C 23.964844 15.6875 23.8125 15.558594 23.714844 15.394531 Z M 23.714844 15.394531 " fill-opacity="1" fill-rule="nonzero"/></g></svg>