
<svg xmlns="http://www.w3.org/2000/svg" xmlns:xlink="http://www.w3.org/1999/xlink" width="160" zoomAndPan="magnify" viewBox="0 0 120 119.999999" height="160" preserveAspectRatio="xMidYMid meet" version="1.0"><defs><clipPath id="e87db83539"><path d="M 0 0 L 120 0 L 120 118.820312 L 0 118.820312 Z M 0 0 " clip-rule="nonzero"/></clipPath><clipPath id="8c3ffd879a"><path d="M 35.25 0 L 84.75 0 C 94.097656 0 103.066406 3.714844 109.675781 10.324219 C 116.285156 16.933594 120 25.902344 120 35.25 L 120 83.570312 C 120 92.917969 116.285156 101.882812 109.675781 108.496094 C 103.066406 115.105469 94.097656 118.820312 84.75 118.820312 L 35.25 118.820312 C 25.902344 118.820312 16.933594 115.105469 10.324219 108.496094 C 3.714844 101.882812 0 92.917969 0 83.570312 L 0 35.25 C 0 25.902344 3.714844 16.933594 10.324219 10.324219 C 16.933594 3.714844 25.902344 0 35.25 0 Z M 35.25 0 " clip-rule="nonzero"/></clipPath><clipPath id="f28729f82b"><path d="M 28.351562 30 L 92.851562 30 L 92.851562 94.414062 L 28.351562 94.414062 Z M 28.351562 30 " clip-rule="nonzero"/></clipPath></defs><g clip-path="url(#e87db83539)"><g clip-path="url(#8c3ffd879a)"><path fill="#68b311" d="M 0 0 L 120.210938 0 L 120.210938 118.820312 L 0 118.820312 Z M 0 0 " fill-opacity="1" fill-rule="nonzero"/></g></g><g clip-path="url(#f28729f82b)"><path fill="#ffffff" d="M 92.070312 59.386719 C 91.671875 58.511719 90.957031 57.636719 90.160156 56.839844 C 89.363281 56.046875 88.332031 55.25 87.136719 54.535156 C 86.105469 53.898438 84.910156 53.261719 83.558594 52.703125 C 84.113281 51.351562 84.511719 50.078125 84.75 48.886719 C 85.070312 47.535156 85.230469 46.261719 85.230469 45.148438 C 85.230469 43.953125 85.070312 42.917969 84.75 41.964844 C 84.433594 41.011719 83.875 40.136719 83.238281 39.5 C 82.605469 38.863281 81.730469 38.304688 80.773438 37.988281 C 79.980469 37.667969 78.945312 37.511719 77.832031 37.511719 C 76.082031 37.511719 74.171875 37.828125 72.023438 38.542969 C 71.386719 38.785156 70.75 38.941406 70.113281 39.261719 C 69.558594 37.988281 68.921875 36.714844 68.285156 35.679688 C 68.601562 35.363281 68.84375 34.886719 68.84375 34.410156 C 68.84375 33.453125 68.125 32.738281 67.171875 32.738281 C 66.851562 32.738281 66.535156 32.816406 66.296875 32.976562 C 66.21875 32.898438 66.136719 32.816406 65.976562 32.660156 C 65.183594 31.785156 64.308594 31.148438 63.433594 30.75 C 62.476562 30.273438 61.601562 30.035156 60.648438 30.035156 C 59.695312 30.035156 58.738281 30.273438 57.863281 30.75 C 56.988281 31.148438 56.113281 31.863281 55.320312 32.660156 C 54.523438 33.453125 53.726562 34.488281 53.011719 35.679688 C 52.375 36.714844 51.738281 37.910156 51.183594 39.261719 C 50.546875 39.023438 49.910156 38.785156 49.351562 38.542969 C 47.125 37.828125 45.21875 37.511719 43.46875 37.511719 C 42.351562 37.511719 41.238281 37.667969 40.363281 37.988281 C 39.410156 38.304688 38.613281 38.785156 37.898438 39.5 C 37.261719 40.136719 36.707031 41.011719 36.386719 41.964844 C 36.070312 42.917969 35.910156 43.953125 35.910156 45.148438 C 35.273438 45.386719 34.796875 46.023438 34.796875 46.738281 C 34.796875 47.613281 35.433594 48.328125 36.308594 48.410156 C 36.308594 48.566406 36.386719 48.726562 36.386719 48.886719 C 36.707031 50.078125 37.101562 51.351562 37.582031 52.703125 C 36.226562 53.261719 35.035156 53.898438 34 54.535156 C 32.808594 55.25 31.851562 56.046875 30.976562 56.839844 C 30.101562 57.636719 29.46875 58.511719 29.070312 59.386719 C 28.59375 60.339844 28.351562 61.214844 28.351562 62.171875 C 28.351562 63.125 28.59375 64.078125 29.070312 64.953125 C 29.46875 65.828125 30.183594 66.703125 30.976562 67.5 C 31.773438 68.296875 32.808594 69.089844 34 69.804688 C 35.035156 70.441406 36.226562 71.078125 37.582031 71.636719 C 37.023438 72.988281 36.625 74.261719 36.386719 75.453125 C 36.148438 76.804688 35.988281 78.078125 35.988281 79.191406 C 35.988281 80.386719 36.148438 81.421875 36.46875 82.375 C 36.625 82.773438 36.785156 83.171875 36.945312 83.488281 C 36.707031 83.804688 36.546875 84.203125 36.546875 84.601562 C 36.546875 85.554688 37.261719 86.273438 38.21875 86.273438 C 38.613281 86.273438 39.011719 86.113281 39.332031 85.875 C 39.648438 86.035156 40.046875 86.191406 40.363281 86.351562 C 41.238281 86.671875 42.351562 86.828125 43.46875 86.828125 C 45.21875 86.828125 47.125 86.511719 49.273438 85.796875 C 49.910156 85.554688 50.546875 85.398438 51.101562 85.078125 C 51.660156 86.429688 52.296875 87.625 52.933594 88.660156 C 53.648438 89.851562 54.445312 90.804688 55.238281 91.679688 C 56.035156 92.554688 56.910156 93.191406 57.785156 93.589844 C 58.738281 94.066406 59.613281 94.304688 60.570312 94.304688 C 61.523438 94.304688 62.476562 94.066406 63.351562 93.589844 C 64.226562 93.191406 65.101562 92.476562 65.898438 91.679688 C 66.695312 90.886719 67.488281 89.851562 68.207031 88.660156 C 68.84375 87.625 69.476562 86.429688 70.035156 85.078125 C 70.671875 85.316406 71.308594 85.554688 71.945312 85.796875 C 74.09375 86.511719 76 86.828125 77.75 86.828125 C 77.832031 86.828125 77.832031 86.828125 77.910156 86.828125 C 78.148438 87.464844 78.785156 87.941406 79.5 87.941406 C 80.457031 87.941406 81.171875 87.226562 81.171875 86.273438 C 81.96875 85.953125 82.683594 85.476562 83.320312 84.921875 C 83.957031 84.285156 84.511719 83.410156 84.832031 82.453125 C 85.148438 81.5 85.308594 80.464844 85.308594 79.273438 C 85.308594 78.160156 85.148438 76.886719 84.832031 75.535156 C 84.511719 74.339844 84.113281 73.066406 83.636719 71.714844 C 84.910156 71.160156 86.183594 70.523438 87.21875 69.886719 C 88.410156 69.171875 89.363281 68.375 90.238281 67.578125 C 91.113281 66.785156 91.75 65.910156 92.148438 65.035156 C 92.625 64.078125 92.863281 63.203125 92.863281 62.25 C 92.785156 61.214844 92.546875 60.261719 92.070312 59.386719 Z M 65.660156 82.214844 C 64.148438 81.421875 62.71875 80.464844 61.207031 79.429688 C 62.875 78.238281 64.546875 76.964844 66.136719 75.535156 C 68.285156 75.375 70.351562 75.136719 72.421875 74.816406 C 71.785156 78.316406 70.910156 81.5 69.796875 84.285156 C 68.445312 83.648438 67.09375 83.011719 65.660156 82.214844 Z M 51.5 84.203125 C 50.386719 81.421875 49.511719 78.238281 48.875 74.738281 C 50.863281 75.054688 53.011719 75.296875 55.160156 75.453125 C 56.75 76.886719 58.421875 78.160156 60.09375 79.351562 C 58.582031 80.386719 57.148438 81.339844 55.636719 82.136719 C 54.207031 83.011719 52.851562 83.648438 51.5 84.203125 Z M 55.636719 42.125 C 57.148438 42.917969 58.582031 43.875 60.09375 44.910156 C 58.421875 46.101562 56.75 47.375 55.160156 48.804688 C 53.011719 48.964844 50.945312 49.203125 48.875 49.523438 C 49.511719 46.023438 50.386719 42.839844 51.5 40.054688 C 52.851562 40.691406 54.207031 41.328125 55.636719 42.125 Z M 69.796875 40.136719 C 70.910156 42.917969 71.785156 46.101562 72.421875 49.601562 C 70.351562 49.285156 68.285156 49.042969 66.136719 48.886719 C 64.546875 47.453125 62.875 46.179688 61.207031 44.988281 C 62.71875 43.953125 64.148438 43 65.660156 42.203125 C 67.09375 41.328125 68.445312 40.691406 69.796875 40.136719 Z M 73.535156 62.171875 C 73.535156 63.921875 73.457031 65.671875 73.375 67.421875 C 72.820312 68.054688 72.261719 68.691406 71.625 69.328125 C 71.308594 69.089844 70.988281 68.929688 70.59375 68.929688 C 69.636719 68.929688 68.921875 69.648438 68.921875 70.601562 C 68.921875 71 69.082031 71.398438 69.320312 71.714844 C 68.207031 72.828125 67.09375 73.863281 65.976562 74.816406 C 64.226562 74.898438 62.476562 74.976562 60.726562 74.976562 C 58.976562 74.976562 57.226562 74.898438 55.476562 74.816406 C 54.207031 73.703125 52.851562 72.511719 51.660156 71.238281 C 50.386719 69.964844 49.195312 68.691406 48.082031 67.421875 C 47.921875 65.671875 47.921875 63.921875 47.921875 62.171875 C 47.921875 60.421875 48 58.671875 48.082031 56.921875 C 49.195312 55.648438 50.386719 54.296875 51.660156 53.101562 C 52.933594 51.828125 54.207031 50.636719 55.476562 49.523438 C 57.226562 49.441406 58.976562 49.363281 60.726562 49.363281 C 62.476562 49.363281 64.226562 49.441406 65.976562 49.523438 C 67.25 50.636719 68.601562 51.828125 69.796875 53.101562 C 71.070312 54.375 72.261719 55.648438 73.375 56.921875 C 73.457031 58.589844 73.535156 60.421875 73.535156 62.171875 Z M 74.09375 57.796875 C 75.285156 59.226562 76.480469 60.738281 77.511719 62.171875 C 76.480469 63.679688 75.285156 65.113281 74.09375 66.546875 C 74.171875 65.113281 74.171875 63.679688 74.171875 62.171875 C 74.171875 60.660156 74.171875 59.226562 74.09375 57.796875 Z M 47.207031 66.546875 C 46.011719 65.113281 44.820312 63.601562 43.785156 62.171875 C 44.820312 60.660156 46.011719 59.226562 47.207031 57.796875 C 47.125 59.226562 47.125 60.660156 47.125 62.171875 C 47.125 63.679688 47.125 65.113281 47.207031 66.546875 Z M 70.195312 52.625 C 69.160156 51.589844 68.046875 50.554688 67.011719 49.601562 C 68.921875 49.761719 70.75 50 72.582031 50.316406 C 72.898438 52.066406 73.136719 53.976562 73.296875 55.886719 C 72.261719 54.691406 71.308594 53.660156 70.195312 52.625 Z M 65.023438 48.726562 C 63.59375 48.648438 62.160156 48.648438 60.648438 48.648438 C 59.136719 48.648438 57.707031 48.726562 56.273438 48.804688 C 57.707031 47.613281 59.21875 46.417969 60.648438 45.386719 C 62.160156 46.339844 63.59375 47.535156 65.023438 48.726562 Z M 54.285156 49.523438 C 53.171875 50.476562 52.136719 51.511719 51.101562 52.542969 C 50.070312 53.578125 49.035156 54.691406 48.082031 55.726562 C 48.238281 53.816406 48.476562 51.988281 48.796875 50.160156 C 50.546875 49.917969 52.375 49.679688 54.285156 49.523438 Z M 47.285156 56.601562 C 45.851562 58.191406 44.582031 59.863281 43.386719 61.535156 C 41.398438 58.671875 39.726562 55.726562 38.613281 52.941406 C 41.398438 51.828125 44.582031 50.953125 48.082031 50.316406 C 47.683594 52.386719 47.445312 54.535156 47.285156 56.601562 Z M 43.386719 62.726562 C 44.582031 64.398438 45.851562 66.066406 47.285156 67.660156 C 47.445312 69.804688 47.683594 71.875 48 73.941406 C 44.5 73.304688 41.320312 72.429688 38.535156 71.316406 C 39.726562 68.535156 41.398438 65.671875 43.386719 62.726562 Z M 48.082031 68.535156 C 49.035156 69.648438 50.070312 70.679688 51.101562 71.714844 C 52.136719 72.75 53.25 73.785156 54.285156 74.738281 C 52.375 74.578125 50.546875 74.339844 48.71875 74.023438 C 48.398438 72.273438 48.238281 70.441406 48.082031 68.535156 Z M 56.273438 75.613281 C 57.707031 75.691406 59.136719 75.691406 60.648438 75.691406 C 62.160156 75.691406 63.59375 75.613281 65.023438 75.535156 C 63.59375 76.726562 62.082031 77.921875 60.648438 78.953125 C 59.136719 78 57.707031 76.804688 56.273438 75.613281 Z M 67.011719 74.738281 C 67.96875 73.863281 68.921875 73.066406 69.796875 72.113281 C 70.035156 72.191406 70.273438 72.273438 70.511719 72.273438 C 71.46875 72.273438 72.183594 71.554688 72.183594 70.601562 C 72.183594 70.285156 72.101562 70.046875 72.023438 69.804688 C 72.421875 69.328125 72.820312 68.929688 73.21875 68.453125 C 73.058594 70.363281 72.820312 72.191406 72.5 74.023438 C 70.75 74.421875 68.921875 74.660156 67.011719 74.738281 Z M 74.011719 67.738281 C 75.445312 66.148438 76.71875 64.476562 77.910156 62.804688 C 79.898438 65.671875 81.570312 68.613281 82.683594 71.398438 C 79.898438 72.511719 76.71875 73.386719 73.21875 74.023438 C 73.613281 71.953125 73.855469 69.804688 74.011719 67.738281 Z M 77.910156 61.613281 C 76.71875 59.941406 75.445312 58.273438 74.011719 56.679688 C 73.855469 54.535156 73.613281 52.464844 73.296875 50.398438 C 76.796875 51.035156 79.980469 51.910156 82.761719 53.023438 C 81.570312 55.804688 79.898438 58.671875 77.910156 61.613281 Z M 77.832031 38.148438 C 79.980469 38.148438 81.730469 38.703125 82.921875 39.898438 C 84.113281 41.089844 84.75 42.839844 84.671875 45.066406 C 84.671875 47.136719 84.113281 49.601562 83 52.386719 C 81.648438 51.828125 80.136719 51.351562 78.546875 50.875 C 76.875 50.398438 75.046875 50 73.21875 49.679688 C 72.898438 47.851562 72.5 46.023438 72.023438 44.351562 C 71.546875 42.761719 71.070312 41.25 70.511719 39.898438 C 73.136719 38.785156 75.683594 38.148438 77.832031 38.148438 Z M 55.71875 33.136719 C 57.308594 31.542969 58.898438 30.75 60.648438 30.75 C 62.320312 30.75 63.988281 31.542969 65.582031 33.136719 C 65.660156 33.214844 65.738281 33.292969 65.820312 33.453125 C 65.660156 33.691406 65.5 34.089844 65.5 34.410156 C 65.5 35.363281 66.21875 36.078125 67.171875 36.078125 C 67.332031 36.078125 67.570312 36.078125 67.726562 36 C 68.363281 37.035156 69 38.226562 69.558594 39.5 C 68.207031 40.054688 66.851562 40.773438 65.421875 41.566406 C 63.832031 42.441406 62.320312 43.398438 60.726562 44.511719 C 59.136719 43.398438 57.546875 42.441406 56.035156 41.566406 C 54.601562 40.773438 53.25 40.054688 51.898438 39.5 C 52.933594 36.792969 54.285156 34.648438 55.71875 33.136719 Z M 38.457031 39.976562 C 39.648438 38.785156 41.320312 38.226562 43.546875 38.226562 C 45.695312 38.226562 48.160156 38.785156 50.945312 39.898438 C 50.386719 41.25 49.910156 42.761719 49.433594 44.351562 C 48.957031 46.023438 48.558594 47.851562 48.238281 49.679688 C 46.410156 50 44.582031 50.398438 42.910156 50.875 C 41.320312 51.351562 39.808594 51.828125 38.457031 52.386719 C 37.898438 50.953125 37.421875 49.601562 37.183594 48.328125 C 37.898438 48.089844 38.375 47.453125 38.375 46.738281 C 38.375 45.863281 37.660156 45.148438 36.785156 45.066406 C 36.625 42.839844 37.261719 41.167969 38.457031 39.976562 Z M 31.613281 67.101562 C 30.023438 65.511719 29.226562 63.921875 29.226562 62.171875 C 29.226562 60.5 30.023438 58.828125 31.613281 57.238281 C 33.125 55.726562 35.273438 54.453125 37.976562 53.261719 C 38.535156 54.613281 39.25 56.046875 40.046875 57.476562 C 40.921875 58.988281 41.875 60.578125 42.988281 62.089844 C 41.875 63.679688 40.921875 65.191406 40.046875 66.703125 C 39.25 68.136719 38.535156 69.566406 37.976562 70.921875 C 35.273438 69.886719 33.125 68.535156 31.613281 67.101562 Z M 43.46875 86.191406 C 41.957031 86.191406 40.683594 85.953125 39.726562 85.398438 C 39.808594 85.160156 39.886719 84.921875 39.886719 84.679688 C 39.886719 83.726562 39.171875 83.011719 38.21875 83.011719 C 37.976562 83.011719 37.738281 83.089844 37.5 83.171875 C 36.945312 82.136719 36.625 80.863281 36.707031 79.273438 C 36.707031 77.125 37.261719 74.738281 38.375 71.953125 C 39.726562 72.511719 41.238281 72.988281 42.832031 73.464844 C 44.5 73.941406 46.332031 74.339844 48.160156 74.660156 C 48.476562 76.488281 48.875 78.316406 49.351562 79.988281 C 49.832031 81.578125 50.308594 83.089844 50.863281 84.441406 C 48.160156 85.554688 45.613281 86.191406 43.46875 86.191406 Z M 65.582031 91.203125 C 63.988281 92.796875 62.398438 93.589844 60.648438 93.589844 C 58.976562 93.589844 57.308594 92.796875 55.71875 91.203125 C 54.207031 89.691406 52.933594 87.546875 51.738281 84.839844 C 53.09375 84.285156 54.445312 83.566406 55.875 82.773438 C 57.46875 81.898438 58.976562 80.941406 60.570312 79.828125 C 62.160156 80.941406 63.75 81.898438 65.261719 82.773438 C 66.695312 83.566406 68.046875 84.285156 69.398438 84.839844 C 68.363281 87.546875 67.011719 89.691406 65.582031 91.203125 Z M 82.84375 84.363281 C 82.363281 84.839844 81.730469 85.238281 81.09375 85.554688 C 80.855469 85 80.21875 84.523438 79.582031 84.523438 C 78.707031 84.523438 77.988281 85.238281 77.910156 86.113281 C 77.910156 86.113281 77.832031 86.113281 77.832031 86.113281 C 75.683594 86.113281 73.21875 85.554688 70.433594 84.441406 C 70.988281 83.089844 71.46875 81.578125 71.945312 79.988281 C 72.421875 78.316406 72.820312 76.488281 73.136719 74.660156 C 74.96875 74.339844 76.796875 73.941406 78.46875 73.464844 C 80.058594 72.988281 81.570312 72.511719 82.921875 71.953125 C 84.035156 74.660156 84.59375 77.125 84.59375 79.273438 C 84.671875 81.421875 84.035156 83.171875 82.84375 84.363281 Z M 89.683594 67.101562 C 88.171875 68.613281 86.023438 69.886719 83.320312 71.078125 C 82.761719 69.726562 82.046875 68.296875 81.25 66.863281 C 80.375 65.351562 79.421875 63.761719 78.308594 62.25 C 79.421875 60.660156 80.375 59.148438 81.25 57.636719 C 82.046875 56.203125 82.761719 54.773438 83.320312 53.421875 C 86.023438 54.613281 88.171875 55.886719 89.683594 57.398438 C 91.273438 58.988281 92.070312 60.578125 92.070312 62.328125 C 92.070312 63.839844 91.273438 65.511719 89.683594 67.101562 Z M 89.683594 67.101562 " fill-opacity="1" fill-rule="nonzero"/></g></svg>