
<svg xmlns="http://www.w3.org/2000/svg" xmlns:xlink="http://www.w3.org/1999/xlink" width="160" zoomAndPan="magnify" viewBox="0 0 120 119.999999" height="160" preserveAspectRatio="xMidYMid meet" version="1.0"><defs><clipPath id="0836f41e8a"><path d="M 0 0 L 120 0 L 120 118.820312 L 0 118.820312 Z M 0 0 " clip-rule="nonzero"/></clipPath><clipPath id="566e917e31"><path d="M 35.25 0 L 84.75 0 C 94.097656 0 103.066406 3.714844 109.675781 10.324219 C 116.285156 16.933594 120 25.902344 120 35.25 L 120 83.570312 C 120 92.917969 116.285156 101.882812 109.675781 108.496094 C 103.066406 115.105469 94.097656 118.820312 84.75 118.820312 L 35.25 118.820312 C 25.902344 118.820312 16.933594 115.105469 10.324219 108.496094 C 3.714844 101.882812 0 92.917969 0 83.570312 L 0 35.25 C 0 25.902344 3.714844 16.933594 10.324219 10.324219 C 16.933594 3.714844 25.902344 0 35.25 0 Z M 35.25 0 " clip-rule="nonzero"/></clipPath><clipPath id="a3e28dce82"><path d="M 18.292969 46.785156 L 99.292969 46.785156 L 99.292969 73.785156 L 18.292969 73.785156 Z M 18.292969 46.785156 " clip-rule="nonzero"/></clipPath></defs><g clip-path="url(#0836f41e8a)"><g clip-path="url(#566e917e31)"><path fill="#4c8008" d="M 0 0 L 120.210938 0 L 120.210938 118.820312 L 0 118.820312 Z M 0 0 " fill-opacity="1" fill-rule="nonzero"/></g></g><path fill="#ffffff" d="M 40.804688 66.210938 C 42.003906 64.488281 42.714844 62.398438 42.714844 60.144531 C 42.714844 57.886719 42.003906 55.796875 40.804688 54.074219 C 40.777344 54.011719 40.734375 53.957031 40.683594 53.914062 C 39.324219 52.035156 37.371094 50.613281 35.089844 49.9375 C 35.070312 49.929688 35.046875 49.921875 35.019531 49.921875 C 34.078125 49.648438 33.089844 49.492188 32.0625 49.492188 C 31.035156 49.492188 30.042969 49.648438 29.101562 49.921875 C 29.082031 49.921875 29.058594 49.933594 29.035156 49.9375 C 26.757812 50.613281 24.804688 52.035156 23.441406 53.914062 C 23.394531 53.957031 23.351562 54.011719 23.324219 54.074219 C 22.125 55.796875 21.410156 57.886719 21.410156 60.144531 C 21.410156 62.398438 22.121094 64.488281 23.324219 66.210938 C 23.351562 66.277344 23.394531 66.328125 23.441406 66.371094 C 25.378906 69.042969 28.515625 70.792969 32.0625 70.792969 C 35.679688 70.792969 38.875 68.976562 40.796875 66.214844 C 40.800781 66.210938 40.804688 66.210938 40.804688 66.210938 Z M 32.523438 69.847656 L 32.523438 64.703125 C 34.046875 64.742188 35.570312 64.957031 37.089844 65.363281 C 36.515625 66.734375 35.722656 68.113281 34.699219 69.496094 C 34.003906 69.695312 33.273438 69.8125 32.523438 69.847656 Z M 29.425781 69.496094 C 28.402344 68.113281 27.613281 66.734375 27.039062 65.363281 C 28.554688 64.957031 30.082031 64.738281 31.601562 64.703125 L 31.601562 69.847656 C 30.851562 69.8125 30.125 69.695312 29.425781 69.496094 Z M 22.359375 60.605469 L 25.0625 60.605469 C 25.109375 61.988281 25.367188 63.371094 25.839844 64.75 C 25.203125 64.953125 24.566406 65.191406 23.929688 65.457031 C 23.003906 64.046875 22.445312 62.386719 22.359375 60.605469 Z M 23.925781 54.828125 C 24.566406 55.09375 25.199219 55.328125 25.839844 55.53125 C 25.363281 56.914062 25.105469 58.296875 25.058594 59.679688 L 22.359375 59.679688 C 22.445312 57.898438 23.003906 56.238281 23.925781 54.828125 Z M 31.605469 50.441406 L 31.605469 55.585938 C 30.082031 55.546875 28.558594 55.332031 27.039062 54.925781 C 27.613281 53.554688 28.40625 52.175781 29.429688 50.792969 C 30.125 50.589844 30.851562 50.476562 31.605469 50.441406 Z M 34.699219 50.789062 C 35.722656 52.171875 36.515625 53.550781 37.089844 54.925781 C 35.570312 55.328125 34.046875 55.546875 32.523438 55.582031 L 32.523438 50.4375 C 33.273438 50.476562 34.003906 50.589844 34.699219 50.789062 Z M 41.769531 59.683594 L 39.066406 59.683594 C 39.019531 58.296875 38.761719 56.917969 38.289062 55.535156 C 38.925781 55.332031 39.5625 55.097656 40.199219 54.832031 C 41.125 56.238281 41.683594 57.898438 41.769531 59.683594 Z M 38.175781 59.683594 L 32.523438 59.683594 L 32.523438 56.507812 C 34.160156 56.472656 35.792969 56.234375 37.421875 55.792969 C 37.875 57.089844 38.125 58.386719 38.175781 59.683594 Z M 31.605469 56.507812 L 31.605469 59.683594 L 25.953125 59.683594 C 26.003906 58.386719 26.253906 57.089844 26.707031 55.792969 C 28.332031 56.234375 29.96875 56.472656 31.605469 56.507812 Z M 25.953125 60.605469 L 31.605469 60.605469 L 31.605469 63.777344 C 29.96875 63.816406 28.335938 64.050781 26.707031 64.496094 C 26.25 63.195312 26.003906 61.898438 25.953125 60.605469 Z M 32.523438 63.777344 L 32.523438 60.605469 L 38.175781 60.605469 C 38.125 61.898438 37.875 63.195312 37.421875 64.492188 C 35.792969 64.050781 34.160156 63.816406 32.523438 63.777344 Z M 39.066406 60.605469 L 41.769531 60.605469 C 41.683594 62.386719 41.121094 64.046875 40.203125 65.457031 C 39.5625 65.191406 38.929688 64.953125 38.289062 64.75 C 38.761719 63.371094 39.023438 61.988281 39.066406 60.605469 Z M 39.644531 54.0625 C 39.085938 54.285156 38.527344 54.492188 37.964844 54.667969 C 37.519531 53.566406 36.949219 52.464844 36.230469 51.367188 C 37.5625 52 38.726562 52.921875 39.644531 54.0625 Z M 27.898438 51.367188 C 27.179688 52.464844 26.609375 53.566406 26.164062 54.667969 C 25.601562 54.492188 25.042969 54.285156 24.484375 54.0625 C 25.402344 52.921875 26.566406 52 27.898438 51.367188 Z M 24.484375 66.226562 C 25.042969 66 25.601562 65.792969 26.164062 65.621094 C 26.609375 66.722656 27.179688 67.820312 27.898438 68.921875 C 26.566406 68.285156 25.402344 67.363281 24.484375 66.226562 Z M 36.230469 68.921875 C 36.949219 67.820312 37.519531 66.722656 37.964844 65.621094 C 38.527344 65.796875 39.085938 66 39.644531 66.226562 C 38.726562 67.363281 37.5625 68.285156 36.230469 68.921875 Z M 36.230469 68.921875 " fill-opacity="1" fill-rule="nonzero"/><g clip-path="url(#a3e28dce82)"><path fill="#ffffff" d="M 85.9375 73.484375 L 31.632812 73.484375 C 24.277344 73.484375 18.292969 67.5 18.292969 60.144531 C 18.292969 52.785156 24.277344 46.800781 31.632812 46.800781 L 85.9375 46.800781 C 93.296875 46.800781 99.28125 52.785156 99.28125 60.144531 C 99.28125 67.5 93.292969 73.484375 85.9375 73.484375 Z M 31.632812 47.878906 C 24.871094 47.878906 19.371094 53.378906 19.371094 60.144531 C 19.371094 66.90625 24.871094 72.40625 31.632812 72.40625 L 85.9375 72.40625 C 92.703125 72.40625 98.203125 66.90625 98.203125 60.144531 C 98.203125 53.378906 92.703125 47.878906 85.9375 47.878906 Z M 31.632812 47.878906 " fill-opacity="1" fill-rule="nonzero"/></g><path fill="#ffffff" d="M 48.140625 56.253906 L 49.148438 56.253906 L 49.148438 63.441406 L 48.140625 63.441406 Z M 48.632812 56.253906 L 52.757812 56.253906 L 52.757812 57.214844 L 48.632812 57.214844 Z M 48.632812 59.394531 L 52.214844 59.394531 L 52.214844 60.351562 L 48.632812 60.351562 Z M 48.632812 62.484375 L 52.757812 62.484375 L 52.757812 63.445312 L 48.632812 63.445312 Z M 48.632812 62.484375 " fill-opacity="1" fill-rule="nonzero"/><path fill="#ffffff" d="M 54.089844 58.3125 L 55.097656 58.3125 L 55.097656 63.445312 L 54.089844 63.445312 Z M 57.203125 60.332031 C 57.203125 59.972656 57.109375 59.691406 56.921875 59.492188 C 56.734375 59.296875 56.472656 59.195312 56.132812 59.195312 C 55.804688 59.195312 55.546875 59.285156 55.367188 59.457031 C 55.1875 59.632812 55.101562 59.878906 55.101562 60.195312 L 54.996094 59.203125 C 55.152344 58.894531 55.359375 58.65625 55.617188 58.488281 C 55.871094 58.320312 56.15625 58.234375 56.464844 58.234375 C 57.023438 58.234375 57.453125 58.417969 57.757812 58.78125 C 58.0625 59.144531 58.214844 59.660156 58.214844 60.324219 L 58.214844 63.4375 L 57.207031 63.4375 L 57.207031 60.332031 Z M 57.203125 60.332031 " fill-opacity="1" fill-rule="nonzero"/><path fill="#ffffff" d="M 60.40625 63.285156 C 60.140625 63.125 59.941406 62.886719 59.804688 62.574219 C 59.664062 62.257812 59.59375 61.882812 59.59375 61.445312 L 59.59375 60.316406 C 59.59375 59.875 59.664062 59.496094 59.796875 59.183594 C 59.933594 58.871094 60.128906 58.632812 60.386719 58.46875 C 60.644531 58.308594 60.957031 58.226562 61.320312 58.226562 C 61.621094 58.226562 61.898438 58.304688 62.152344 58.460938 C 62.40625 58.621094 62.605469 58.84375 62.761719 59.128906 L 62.65625 60.179688 C 62.65625 59.960938 62.617188 59.777344 62.539062 59.621094 C 62.460938 59.464844 62.347656 59.347656 62.195312 59.265625 C 62.046875 59.183594 61.863281 59.144531 61.648438 59.144531 C 61.316406 59.144531 61.058594 59.246094 60.875 59.453125 C 60.691406 59.664062 60.601562 59.953125 60.601562 60.332031 L 60.601562 61.445312 C 60.601562 61.820312 60.691406 62.105469 60.875 62.308594 C 61.054688 62.511719 61.3125 62.613281 61.648438 62.613281 C 61.863281 62.613281 62.046875 62.570312 62.195312 62.488281 C 62.34375 62.402344 62.457031 62.28125 62.539062 62.121094 C 62.617188 61.964844 62.65625 61.777344 62.65625 61.554688 L 62.726562 62.636719 C 62.625 62.890625 62.457031 63.101562 62.226562 63.273438 C 61.992188 63.445312 61.707031 63.53125 61.367188 63.53125 C 60.996094 63.53125 60.671875 63.449219 60.40625 63.285156 Z M 60.429688 65.3125 C 60.125 65.167969 59.886719 64.96875 59.71875 64.707031 L 60.398438 64.089844 C 60.53125 64.269531 60.6875 64.410156 60.871094 64.507812 C 61.054688 64.609375 61.246094 64.660156 61.445312 64.660156 C 61.832031 64.660156 62.128906 64.550781 62.339844 64.339844 C 62.550781 64.125 62.65625 63.824219 62.65625 63.4375 L 62.65625 58.3125 L 63.664062 58.3125 L 63.664062 63.289062 C 63.664062 63.757812 63.578125 64.164062 63.402344 64.5 C 63.230469 64.835938 62.976562 65.089844 62.648438 65.265625 C 62.320312 65.441406 61.921875 65.527344 61.457031 65.527344 C 61.078125 65.527344 60.734375 65.457031 60.429688 65.3125 Z M 60.429688 65.3125 " fill-opacity="1" fill-rule="nonzero"/><path fill="#ffffff" d="M 66.207031 62.117188 C 66.207031 62.242188 66.238281 62.339844 66.289062 62.40625 C 66.34375 62.472656 66.421875 62.507812 66.519531 62.507812 L 66.992188 62.507812 L 66.992188 63.464844 L 66.402344 63.464844 C 66.019531 63.464844 65.722656 63.347656 65.515625 63.109375 C 65.304688 62.871094 65.203125 62.539062 65.203125 62.105469 L 65.203125 56.253906 L 66.207031 56.253906 Z M 66.207031 62.117188 " fill-opacity="1" fill-rule="nonzero"/><path fill="#ffffff" d="M 68.128906 56.253906 L 69.136719 56.253906 L 69.136719 57.261719 L 68.128906 57.261719 Z M 68.128906 58.3125 L 69.136719 58.3125 L 69.136719 63.445312 L 68.128906 63.445312 Z M 68.128906 58.3125 " fill-opacity="1" fill-rule="nonzero"/><path fill="#ffffff" d="M 71.632812 63.429688 C 71.367188 63.371094 71.117188 63.277344 70.886719 63.164062 C 70.65625 63.042969 70.445312 62.898438 70.25 62.71875 L 70.847656 61.980469 C 71.125 62.191406 71.398438 62.351562 71.671875 62.453125 C 71.945312 62.558594 72.21875 62.609375 72.484375 62.609375 C 72.882812 62.609375 73.179688 62.550781 73.378906 62.425781 C 73.578125 62.300781 73.675781 62.117188 73.675781 61.871094 C 73.675781 61.703125 73.625 61.582031 73.515625 61.5 C 73.40625 61.417969 73.273438 61.363281 73.109375 61.335938 C 72.949219 61.308594 72.71875 61.28125 72.429688 61.257812 C 72.402344 61.257812 72.375 61.257812 72.347656 61.257812 C 72.316406 61.253906 72.289062 61.25 72.261719 61.25 C 72.25 61.25 72.238281 61.25 72.222656 61.246094 C 72.210938 61.242188 72.195312 61.242188 72.179688 61.242188 C 71.851562 61.21875 71.566406 61.167969 71.335938 61.097656 C 71.105469 61.027344 70.914062 60.894531 70.761719 60.699219 C 70.605469 60.503906 70.53125 60.226562 70.53125 59.863281 C 70.53125 59.503906 70.605469 59.203125 70.753906 58.960938 C 70.902344 58.722656 71.125 58.542969 71.417969 58.417969 C 71.710938 58.296875 72.078125 58.238281 72.519531 58.238281 C 72.785156 58.238281 73.039062 58.265625 73.28125 58.3125 C 73.523438 58.363281 73.753906 58.4375 73.976562 58.535156 C 74.195312 58.628906 74.410156 58.753906 74.613281 58.902344 L 74.007812 59.636719 C 73.75 59.472656 73.496094 59.347656 73.246094 59.265625 C 73 59.183594 72.757812 59.144531 72.519531 59.144531 C 72.175781 59.144531 71.917969 59.203125 71.746094 59.316406 C 71.574219 59.433594 71.488281 59.613281 71.488281 59.84375 C 71.488281 59.984375 71.535156 60.085938 71.636719 60.15625 C 71.730469 60.222656 71.855469 60.273438 72 60.296875 C 72.152344 60.316406 72.359375 60.339844 72.632812 60.351562 C 72.65625 60.355469 72.675781 60.359375 72.695312 60.359375 C 72.714844 60.359375 72.738281 60.359375 72.761719 60.363281 C 72.769531 60.363281 72.78125 60.363281 72.792969 60.363281 C 72.800781 60.363281 72.8125 60.367188 72.820312 60.367188 C 73.179688 60.390625 73.488281 60.4375 73.738281 60.511719 C 73.992188 60.585938 74.199219 60.726562 74.375 60.941406 C 74.546875 61.15625 74.632812 61.464844 74.632812 61.871094 C 74.632812 62.242188 74.554688 62.546875 74.394531 62.789062 C 74.238281 63.03125 73.996094 63.214844 73.679688 63.335938 C 73.359375 63.457031 72.964844 63.515625 72.484375 63.515625 C 72.179688 63.515625 71.894531 63.488281 71.632812 63.429688 Z M 71.632812 63.429688 " fill-opacity="1" fill-rule="nonzero"/><path fill="#ffffff" d="M 75.917969 56.253906 L 76.925781 56.253906 L 76.925781 63.441406 L 75.917969 63.441406 Z M 79.03125 60.332031 C 79.03125 59.972656 78.9375 59.691406 78.75 59.492188 C 78.5625 59.296875 78.300781 59.195312 77.960938 59.195312 C 77.632812 59.195312 77.378906 59.28125 77.199219 59.453125 C 77.019531 59.625 76.929688 59.867188 76.929688 60.179688 L 76.824219 59.191406 C 76.984375 58.886719 77.191406 58.65625 77.445312 58.488281 C 77.703125 58.320312 77.980469 58.238281 78.292969 58.238281 C 78.851562 58.238281 79.28125 58.417969 79.585938 58.785156 C 79.890625 59.148438 80.046875 59.664062 80.046875 60.328125 L 80.046875 63.441406 L 79.03125 63.441406 Z M 79.03125 60.332031 " fill-opacity="1" fill-rule="nonzero"/><path fill="#ffffff" d="M 87.125 64.472656 C 86.988281 64.472656 86.851562 64.421875 86.746094 64.316406 C 86.535156 64.105469 86.535156 63.765625 86.746094 63.554688 L 90.160156 60.144531 L 86.746094 56.730469 C 86.535156 56.519531 86.535156 56.179688 86.746094 55.96875 C 86.957031 55.757812 87.296875 55.757812 87.507812 55.96875 L 91.300781 59.761719 C 91.511719 59.972656 91.511719 60.3125 91.300781 60.523438 L 87.507812 64.3125 C 87.402344 64.421875 87.265625 64.472656 87.125 64.472656 Z M 87.125 64.472656 " fill-opacity="1" fill-rule="nonzero"/></svg>