
<svg xmlns="http://www.w3.org/2000/svg" xmlns:xlink="http://www.w3.org/1999/xlink" width="336" zoomAndPan="magnify" viewBox="0 0 252 43.499998" height="58" preserveAspectRatio="xMidYMid meet" version="1.0"><defs><g/><clipPath id="6441849e4c"><path d="M 128.148438 0.996094 L 247.785156 0.996094 L 247.785156 42.007812 L 128.148438 42.007812 Z M 128.148438 0.996094 " clip-rule="nonzero"/></clipPath><clipPath id="6a48212c91"><path d="M 125.769531 0 L 250.273438 0 L 250.273438 2.644531 L 125.769531 2.644531 Z M 247.628906 2.644531 L 250.273438 2.644531 L 250.273438 40.355469 L 247.628906 40.355469 Z M 125.769531 2.644531 L 128.417969 2.644531 L 128.417969 40.355469 L 125.769531 40.355469 Z M 125.769531 40.355469 L 250.273438 40.355469 L 250.273438 43.003906 L 125.769531 43.003906 Z M 125.769531 40.355469 " clip-rule="nonzero"/></clipPath><clipPath id="8278c98a86"><path d="M 1.433594 0 L 125.9375 0 L 125.9375 43.003906 L 1.433594 43.003906 Z M 1.433594 0 " clip-rule="nonzero"/></clipPath></defs><g clip-path="url(#6441849e4c)"><path fill="#7dd856" d="M 128.148438 0.996094 L 247.8125 0.996094 L 247.8125 42.007812 L 128.148438 42.007812 Z M 128.148438 0.996094 " fill-opacity="1" fill-rule="nonzero"/></g><g clip-path="url(#6a48212c91)"><path fill="#244914" d="M 250.273438 -0.00390625 L 250.273438 43.003906 L 125.792969 43.003906 L 125.792969 -0.00390625 Z M 250.273438 -0.00390625 " fill-opacity="1" fill-rule="nonzero"/></g><g clip-path="url(#8278c98a86)"><path fill="#244914" d="M 1.433594 0 L 125.914062 0 L 125.914062 43.003906 L 1.433594 43.003906 Z M 1.433594 0 " fill-opacity="1" fill-rule="nonzero"/></g><g fill="#244914" fill-opacity="1"><g transform="translate(137.657345, 30.870307)"><g><path d="M 11.5625 -17.28125 L 16.796875 -17.28125 L 11.125 0 L 5.640625 0 L 0 -17.28125 L 5.25 -17.28125 L 7.59375 -8.515625 C 8.082031 -6.578125 8.351562 -5.222656 8.40625 -4.453125 C 8.457031 -5.003906 8.566406 -5.691406 8.734375 -6.515625 C 8.898438 -7.347656 9.046875 -8 9.171875 -8.46875 Z M 11.5625 -17.28125 "/></g></g><g transform="translate(154.45266, 30.870307)"><g><path d="M 12.125 0 L 1.875 0 L 1.875 -17.28125 L 12.125 -17.28125 L 12.125 -13.53125 L 6.53125 -13.53125 L 6.53125 -10.8125 L 11.71875 -10.8125 L 11.71875 -7.0625 L 6.53125 -7.0625 L 6.53125 -3.8125 L 12.125 -3.8125 Z M 12.125 0 "/></g></g><g transform="translate(167.737624, 30.870307)"><g><path d="M 6.53125 -6.28125 L 6.53125 0 L 1.875 0 L 1.875 -17.28125 L 7.53125 -17.28125 C 12.226562 -17.28125 14.578125 -15.578125 14.578125 -12.171875 C 14.578125 -10.171875 13.597656 -8.625 11.640625 -7.53125 L 16.671875 0 L 11.375 0 L 7.71875 -6.28125 Z M 6.53125 -9.796875 L 7.40625 -9.796875 C 9.039062 -9.796875 9.859375 -10.515625 9.859375 -11.953125 C 9.859375 -13.148438 9.054688 -13.75 7.453125 -13.75 L 6.53125 -13.75 Z M 6.53125 -9.796875 "/></g></g><g transform="translate(184.119261, 30.870307)"><g><path d="M 1.875 0 L 1.875 -17.28125 L 6.5625 -17.28125 L 6.5625 0 Z M 1.875 0 "/></g></g><g transform="translate(192.546466, 30.870307)"><g><path d="M 9.484375 0 L 4.828125 0 L 4.828125 -13.453125 L 0.609375 -13.453125 L 0.609375 -17.28125 L 13.703125 -17.28125 L 13.703125 -13.453125 L 9.484375 -13.453125 Z M 9.484375 0 "/></g></g><g transform="translate(206.847895, 30.870307)"><g><path d="M 12.46875 0 L 11.609375 -3.234375 L 6 -3.234375 L 5.125 0 L 0 0 L 5.640625 -17.34375 L 11.859375 -17.34375 L 17.578125 0 Z M 10.640625 -7.0625 L 9.90625 -9.90625 C 9.726562 -10.53125 9.515625 -11.34375 9.265625 -12.34375 C 9.023438 -13.34375 8.863281 -14.0625 8.78125 -14.5 C 8.707031 -14.09375 8.566406 -13.425781 8.359375 -12.5 C 8.148438 -11.582031 7.6875 -9.769531 6.96875 -7.0625 Z M 10.640625 -7.0625 "/></g></g><g transform="translate(224.423288, 30.870307)"><g><path d="M 13.171875 -5.25 C 13.171875 -4.175781 12.894531 -3.222656 12.34375 -2.390625 C 11.800781 -1.554688 11.019531 -0.910156 10 -0.453125 C 8.976562 0.00390625 7.773438 0.234375 6.390625 0.234375 C 5.242188 0.234375 4.28125 0.15625 3.5 0 C 2.71875 -0.164062 1.90625 -0.445312 1.0625 -0.84375 L 1.0625 -5.015625 C 1.957031 -4.554688 2.882812 -4.195312 3.84375 -3.9375 C 4.800781 -3.6875 5.679688 -3.5625 6.484375 -3.5625 C 7.179688 -3.5625 7.691406 -3.679688 8.015625 -3.921875 C 8.335938 -4.160156 8.5 -4.46875 8.5 -4.84375 C 8.5 -5.082031 8.429688 -5.289062 8.296875 -5.46875 C 8.171875 -5.644531 7.960938 -5.820312 7.671875 -6 C 7.390625 -6.1875 6.625 -6.554688 5.375 -7.109375 C 4.25 -7.617188 3.40625 -8.113281 2.84375 -8.59375 C 2.28125 -9.082031 1.863281 -9.632812 1.59375 -10.25 C 1.320312 -10.875 1.1875 -11.613281 1.1875 -12.46875 C 1.1875 -14.0625 1.765625 -15.300781 2.921875 -16.1875 C 4.078125 -17.082031 5.664062 -17.53125 7.6875 -17.53125 C 9.476562 -17.53125 11.304688 -17.113281 13.171875 -16.28125 L 11.734375 -12.6875 C 10.117188 -13.425781 8.722656 -13.796875 7.546875 -13.796875 C 6.941406 -13.796875 6.5 -13.6875 6.21875 -13.46875 C 5.945312 -13.257812 5.8125 -13 5.8125 -12.6875 C 5.8125 -12.34375 5.984375 -12.035156 6.328125 -11.765625 C 6.679688 -11.503906 7.632812 -11.019531 9.1875 -10.3125 C 10.675781 -9.632812 11.710938 -8.910156 12.296875 -8.140625 C 12.878906 -7.378906 13.171875 -6.414062 13.171875 -5.25 Z M 13.171875 -5.25 "/></g></g></g><g fill="#7dd856" fill-opacity="1"><g transform="translate(9.579499, 30.836427)"><g><path d="M 9.578125 -13.71875 C 8.460938 -13.71875 7.59375 -13.257812 6.96875 -12.34375 C 6.34375 -11.4375 6.03125 -10.179688 6.03125 -8.578125 C 6.03125 -5.253906 7.300781 -3.59375 9.84375 -3.59375 C 10.601562 -3.59375 11.34375 -3.695312 12.0625 -3.90625 C 12.78125 -4.125 13.503906 -4.378906 14.234375 -4.671875 L 14.234375 -0.71875 C 12.785156 -0.0820312 11.148438 0.234375 9.328125 0.234375 C 6.710938 0.234375 4.707031 -0.519531 3.3125 -2.03125 C 1.925781 -3.550781 1.234375 -5.742188 1.234375 -8.609375 C 1.234375 -10.398438 1.566406 -11.972656 2.234375 -13.328125 C 2.910156 -14.691406 3.882812 -15.738281 5.15625 -16.46875 C 6.425781 -17.195312 7.914062 -17.5625 9.625 -17.5625 C 11.5 -17.5625 13.285156 -17.15625 14.984375 -16.34375 L 13.5625 -12.65625 C 12.914062 -12.957031 12.273438 -13.207031 11.640625 -13.40625 C 11.003906 -13.613281 10.316406 -13.71875 9.578125 -13.71875 Z M 9.578125 -13.71875 "/></g></g><g transform="translate(25.317015, 30.836427)"><g><path d="M 18.0625 -8.671875 C 18.0625 -5.765625 17.347656 -3.550781 15.921875 -2.03125 C 14.492188 -0.519531 12.40625 0.234375 9.65625 0.234375 C 6.9375 0.234375 4.851562 -0.523438 3.40625 -2.046875 C 1.957031 -3.566406 1.234375 -5.785156 1.234375 -8.703125 C 1.234375 -11.585938 1.953125 -13.785156 3.390625 -15.296875 C 4.828125 -16.816406 6.921875 -17.578125 9.671875 -17.578125 C 12.429688 -17.578125 14.519531 -16.820312 15.9375 -15.3125 C 17.351562 -13.8125 18.0625 -11.597656 18.0625 -8.671875 Z M 6.15625 -8.671875 C 6.15625 -5.328125 7.320312 -3.65625 9.65625 -3.65625 C 10.832031 -3.65625 11.707031 -4.0625 12.28125 -4.875 C 12.851562 -5.6875 13.140625 -6.953125 13.140625 -8.671875 C 13.140625 -10.398438 12.847656 -11.675781 12.265625 -12.5 C 11.691406 -13.332031 10.828125 -13.75 9.671875 -13.75 C 7.328125 -13.75 6.15625 -12.054688 6.15625 -8.671875 Z M 6.15625 -8.671875 "/></g></g><g transform="translate(44.642542, 30.836427)"><g><path d="M 1.875 0 L 1.875 -17.3125 L 6.546875 -17.3125 L 6.546875 -3.78125 L 13.21875 -3.78125 L 13.21875 0 Z M 1.875 0 "/></g></g><g transform="translate(58.757756, 30.836427)"><g><path d="M 12.15625 0 L 1.875 0 L 1.875 -17.3125 L 12.15625 -17.3125 L 12.15625 -13.5625 L 6.546875 -13.5625 L 6.546875 -10.828125 L 11.734375 -10.828125 L 11.734375 -7.078125 L 6.546875 -7.078125 L 6.546875 -3.8125 L 12.15625 -3.8125 Z M 4.28125 -18.6875 L 4.28125 -19.03125 C 5.5 -20.332031 6.269531 -21.171875 6.59375 -21.546875 C 6.925781 -21.929688 7.195312 -22.273438 7.40625 -22.578125 L 12.46875 -22.578125 L 12.46875 -22.328125 C 11.84375 -21.828125 10.976562 -21.1875 9.875 -20.40625 C 8.769531 -19.625 7.929688 -19.050781 7.359375 -18.6875 Z M 4.28125 -18.6875 "/></g></g><g transform="translate(72.067739, 30.836427)"><g><path d="M 8.828125 -10.140625 L 16.296875 -10.140625 L 16.296875 -0.8125 C 14.265625 -0.113281 12.035156 0.234375 9.609375 0.234375 C 6.929688 0.234375 4.863281 -0.535156 3.40625 -2.078125 C 1.957031 -3.628906 1.234375 -5.835938 1.234375 -8.703125 C 1.234375 -11.492188 2.03125 -13.664062 3.625 -15.21875 C 5.21875 -16.78125 7.453125 -17.5625 10.328125 -17.5625 C 11.410156 -17.5625 12.4375 -17.457031 13.40625 -17.25 C 14.375 -17.039062 15.21875 -16.78125 15.9375 -16.46875 L 14.453125 -12.796875 C 13.210938 -13.410156 11.84375 -13.71875 10.34375 -13.71875 C 8.976562 -13.71875 7.921875 -13.273438 7.171875 -12.390625 C 6.429688 -11.503906 6.0625 -10.234375 6.0625 -8.578125 C 6.0625 -6.960938 6.398438 -5.726562 7.078125 -4.875 C 7.753906 -4.03125 8.726562 -3.609375 10 -3.609375 C 10.6875 -3.609375 11.320312 -3.675781 11.90625 -3.8125 L 11.90625 -6.53125 L 8.828125 -6.53125 Z M 8.828125 -10.140625 "/></g></g><g transform="translate(90.019639, 30.836427)"><g><path d="M 1.875 0 L 1.875 -17.3125 L 6.578125 -17.3125 L 6.578125 0 Z M 1.875 0 "/></g></g><g transform="translate(98.462715, 30.836427)"><g><path d="M 18.0625 -8.671875 C 18.0625 -5.765625 17.347656 -3.550781 15.921875 -2.03125 C 14.492188 -0.519531 12.40625 0.234375 9.65625 0.234375 C 6.9375 0.234375 4.851562 -0.523438 3.40625 -2.046875 C 1.957031 -3.566406 1.234375 -5.785156 1.234375 -8.703125 C 1.234375 -11.585938 1.953125 -13.785156 3.390625 -15.296875 C 4.828125 -16.816406 6.921875 -17.578125 9.671875 -17.578125 C 12.429688 -17.578125 14.519531 -16.820312 15.9375 -15.3125 C 17.351562 -13.8125 18.0625 -11.597656 18.0625 -8.671875 Z M 6.15625 -8.671875 C 6.15625 -5.328125 7.320312 -3.65625 9.65625 -3.65625 C 10.832031 -3.65625 11.707031 -4.0625 12.28125 -4.875 C 12.851562 -5.6875 13.140625 -6.953125 13.140625 -8.671875 C 13.140625 -10.398438 12.847656 -11.675781 12.265625 -12.5 C 11.691406 -13.332031 10.828125 -13.75 9.671875 -13.75 C 7.328125 -13.75 6.15625 -12.054688 6.15625 -8.671875 Z M 6.15625 -8.671875 "/></g></g></g></svg>