
<svg xmlns="http://www.w3.org/2000/svg" xmlns:xlink="http://www.w3.org/1999/xlink" width="160" zoomAndPan="magnify" viewBox="0 0 120 60" height="80" preserveAspectRatio="xMidYMid meet" version="1.0"><defs><clipPath id="9c10890315"><path d="M 0 18.761719 L 19 18.761719 L 19 30 L 0 30 Z M 0 18.761719 " clip-rule="nonzero"/></clipPath><clipPath id="da35face0e"><path d="M 11.078125 20.761719 L 15.320312 20.761719 L 15.320312 25 L 11.078125 25 Z M 11.078125 20.761719 " clip-rule="nonzero"/></clipPath><clipPath id="4bf09d3d48"><path d="M 11.195312 22.867188 C 11.195312 22.320312 11.386719 21.855469 11.773438 21.46875 C 12.160156 21.082031 12.625 20.886719 13.171875 20.886719 C 13.71875 20.886719 14.183594 21.082031 14.570312 21.46875 C 14.957031 21.855469 15.152344 22.320312 15.152344 22.867188 C 15.152344 23.417969 14.957031 23.882812 14.570312 24.269531 C 14.183594 24.65625 13.71875 24.851562 13.171875 24.851562 C 12.625 24.851562 12.160156 24.65625 11.773438 24.269531 C 11.386719 23.882812 11.195312 23.417969 11.195312 22.867188 Z M 11.195312 22.867188 " clip-rule="nonzero"/></clipPath></defs><path fill="#156d00" d="M 32.148438 23.394531 C 32.890625 23.683594 33.527344 24.1875 33.976562 24.84375 C 34.417969 25.546875 34.640625 26.363281 34.613281 27.195312 C 34.632812 28.019531 34.414062 28.832031 33.976562 29.53125 C 33.527344 30.1875 32.890625 30.691406 32.148438 30.980469 C 31.269531 31.359375 30.3125 31.542969 29.355469 31.515625 L 26.574219 31.515625 L 26.574219 35.246094 L 24.285156 35.246094 L 24.285156 22.886719 L 29.355469 22.886719 C 30.3125 22.863281 31.265625 23.042969 32.148438 23.410156 Z M 31.527344 29.09375 C 31.789062 28.875 31.996094 28.59375 32.132812 28.28125 C 32.269531 27.964844 32.328125 27.625 32.308594 27.28125 C 32.328125 26.9375 32.269531 26.59375 32.132812 26.277344 C 31.996094 25.957031 31.789062 25.675781 31.527344 25.453125 C 30.863281 24.988281 30.0625 24.761719 29.253906 24.816406 L 26.574219 24.816406 L 26.574219 29.734375 L 29.253906 29.734375 C 30.0625 29.785156 30.863281 29.5625 31.527344 29.09375 Z M 31.527344 29.09375 " fill-opacity="1" fill-rule="nonzero"/><path fill="#156d00" d="M 41.273438 25.6875 L 41.273438 27.789062 L 40.765625 27.789062 C 40.398438 27.769531 40.03125 27.824219 39.683594 27.949219 C 39.335938 28.078125 39.019531 28.273438 38.753906 28.527344 C 38.242188 29.128906 37.984375 29.902344 38.03125 30.691406 L 38.03125 35.246094 L 35.769531 35.246094 L 35.769531 25.816406 L 37.871094 25.816406 L 37.871094 27.195312 C 38.253906 26.679688 38.761719 26.277344 39.347656 26.019531 C 39.9375 25.765625 40.582031 25.671875 41.214844 25.742188 " fill-opacity="1" fill-rule="nonzero"/><path fill="#156d00" d="M 43.980469 34.738281 C 43.238281 34.339844 42.621094 33.742188 42.199219 33.011719 C 41.773438 32.25 41.550781 31.390625 41.550781 30.515625 C 41.550781 29.640625 41.773438 28.78125 42.199219 28.019531 C 42.625 27.296875 43.242188 26.703125 43.980469 26.308594 C 44.78125 25.898438 45.667969 25.6875 46.566406 25.6875 C 47.464844 25.6875 48.351562 25.898438 49.152344 26.308594 C 49.894531 26.695312 50.515625 27.277344 50.949219 27.992188 C 51.367188 28.757812 51.585938 29.613281 51.585938 30.488281 C 51.585938 31.359375 51.367188 32.21875 50.949219 32.980469 C 50.519531 33.710938 49.898438 34.308594 49.152344 34.707031 C 48.347656 35.109375 47.464844 35.316406 46.566406 35.316406 C 45.671875 35.316406 44.785156 35.109375 43.980469 34.707031 Z M 48.574219 32.621094 C 48.84375 32.335938 49.050781 32 49.1875 31.632812 C 49.324219 31.269531 49.386719 30.878906 49.371094 30.488281 C 49.382812 30.09375 49.320312 29.703125 49.183594 29.335938 C 49.046875 28.964844 48.839844 28.628906 48.574219 28.339844 C 48.3125 28.074219 47.996094 27.863281 47.652344 27.726562 C 47.304688 27.585938 46.933594 27.519531 46.558594 27.527344 C 46.1875 27.515625 45.820312 27.585938 45.476562 27.722656 C 45.132812 27.863281 44.820312 28.074219 44.5625 28.339844 C 44.027344 28.925781 43.746094 29.695312 43.78125 30.488281 C 43.761719 30.875 43.820312 31.265625 43.953125 31.632812 C 44.089844 32 44.292969 32.335938 44.5625 32.621094 C 44.820312 32.886719 45.132812 33.097656 45.476562 33.234375 C 45.820312 33.375 46.1875 33.441406 46.558594 33.429688 C 46.933594 33.441406 47.304688 33.375 47.652344 33.234375 C 47.996094 33.09375 48.3125 32.886719 48.574219 32.621094 Z M 48.574219 32.621094 " fill-opacity="1" fill-rule="nonzero"/><path fill="#353535" d="M 53.019531 26.195312 L 55.046875 26.195312 L 55.046875 27.222656 C 55.339844 26.835938 55.722656 26.523438 56.160156 26.3125 C 56.597656 26.101562 57.082031 25.996094 57.566406 26.003906 C 58.144531 25.953125 58.726562 26.070312 59.242188 26.34375 C 59.757812 26.617188 60.179688 27.035156 60.460938 27.542969 C 60.777344 27.0625 61.207031 26.671875 61.714844 26.402344 C 62.21875 26.132812 62.785156 25.996094 63.359375 26.003906 C 63.851562 25.953125 64.351562 26.015625 64.820312 26.1875 C 65.285156 26.359375 65.707031 26.632812 66.054688 26.988281 C 66.398438 27.347656 66.660156 27.777344 66.816406 28.25 C 66.96875 28.722656 67.015625 29.226562 66.949219 29.71875 L 66.949219 35.042969 L 64.851562 35.042969 L 64.851562 29.894531 C 64.851562 28.601562 64.199219 27.789062 62.9375 27.789062 C 61.679688 27.789062 60.984375 28.542969 60.984375 30.09375 L 60.984375 35.042969 L 58.941406 35.042969 L 58.941406 29.820312 C 58.941406 28.558594 58.304688 27.789062 57.089844 27.789062 C 55.871094 27.789062 55.089844 28.574219 55.089844 30.140625 L 55.089844 35.042969 L 53.019531 35.042969 Z M 53.019531 26.195312 " fill-opacity="1" fill-rule="nonzero"/><path fill="#353535" d="M 69.515625 22.742188 C 69.6875 22.730469 69.855469 22.757812 70.019531 22.816406 C 70.179688 22.878906 70.324219 22.972656 70.445312 23.097656 C 70.566406 23.21875 70.660156 23.367188 70.71875 23.527344 C 70.777344 23.6875 70.800781 23.859375 70.789062 24.03125 C 70.753906 24.347656 70.605469 24.644531 70.367188 24.855469 C 70.132812 25.070312 69.824219 25.1875 69.507812 25.1875 C 69.1875 25.1875 68.882812 25.070312 68.644531 24.855469 C 68.410156 24.644531 68.257812 24.347656 68.226562 24.03125 C 68.210938 23.859375 68.238281 23.6875 68.296875 23.523438 C 68.355469 23.359375 68.453125 23.214844 68.574219 23.089844 C 68.695312 22.96875 68.84375 22.875 69.007812 22.8125 C 69.167969 22.753906 69.339844 22.730469 69.515625 22.742188 Z M 68.484375 26.195312 L 70.527344 26.195312 L 70.527344 35.042969 L 68.484375 35.042969 Z M 68.484375 26.195312 " fill-opacity="1" fill-rule="nonzero"/><path fill="#353535" d="M 74.410156 23.84375 L 72.351562 23.84375 L 72.351562 35.042969 L 74.410156 35.042969 Z M 74.410156 23.84375 " fill-opacity="1" fill-rule="nonzero"/><path fill="#353535" d="M 77.320312 22.742188 C 77.492188 22.730469 77.664062 22.753906 77.828125 22.8125 C 77.988281 22.875 78.136719 22.96875 78.261719 23.089844 C 78.382812 23.214844 78.476562 23.359375 78.535156 23.523438 C 78.597656 23.6875 78.621094 23.859375 78.609375 24.03125 C 78.621094 24.203125 78.59375 24.375 78.53125 24.535156 C 78.472656 24.695312 78.375 24.839844 78.253906 24.960938 C 78.132812 25.078125 77.984375 25.171875 77.824219 25.230469 C 77.660156 25.289062 77.488281 25.308594 77.320312 25.292969 C 77.148438 25.3125 76.976562 25.292969 76.8125 25.234375 C 76.652344 25.179688 76.503906 25.085938 76.378906 24.964844 C 76.257812 24.84375 76.160156 24.699219 76.101562 24.539062 C 76.042969 24.375 76.015625 24.203125 76.03125 24.03125 C 76.019531 23.859375 76.046875 23.6875 76.105469 23.527344 C 76.167969 23.363281 76.261719 23.21875 76.382812 23.097656 C 76.507812 22.972656 76.652344 22.878906 76.8125 22.816406 C 76.976562 22.757812 77.148438 22.730469 77.320312 22.742188 Z M 76.320312 26.195312 L 78.347656 26.195312 L 78.347656 35.042969 L 76.320312 35.042969 Z M 76.320312 26.195312 " fill-opacity="1" fill-rule="nonzero"/><path fill="#353535" d="M 79.839844 26.195312 L 81.289062 26.195312 L 81.289062 24.84375 L 83.34375 23.394531 L 83.34375 26.148438 L 85.140625 26.148438 L 85.140625 27.992188 L 83.402344 27.992188 L 83.402344 31.3125 C 83.402344 32.851562 83.632812 33.097656 85.199219 33.097656 L 85.199219 35.011719 L 84.921875 35.011719 C 82.1875 35.011719 81.347656 34.140625 81.347656 31.328125 L 81.347656 27.992188 L 79.898438 27.992188 Z M 79.839844 26.195312 " fill-opacity="1" fill-rule="nonzero"/><path fill="#353535" d="M 85.980469 30.632812 C 85.945312 30.039062 86.03125 29.445312 86.234375 28.886719 C 86.433594 28.328125 86.75 27.816406 87.15625 27.386719 C 87.5625 26.953125 88.054688 26.609375 88.597656 26.375 C 89.144531 26.140625 89.730469 26.019531 90.324219 26.019531 C 90.867188 25.996094 91.410156 26.09375 91.910156 26.308594 C 92.414062 26.519531 92.859375 26.84375 93.222656 27.253906 L 93.222656 26.195312 L 95.261719 26.195312 L 95.261719 35.042969 L 93.191406 35.042969 L 93.191406 33.894531 C 92.84375 34.324219 92.402344 34.667969 91.898438 34.902344 C 91.398438 35.132812 90.847656 35.246094 90.296875 35.230469 C 89.703125 35.230469 89.117188 35.109375 88.574219 34.875 C 88.03125 34.644531 87.539062 34.300781 87.132812 33.871094 C 86.726562 33.4375 86.410156 32.929688 86.207031 32.371094 C 86.003906 31.816406 85.917969 31.222656 85.949219 30.632812 Z M 93.277344 30.632812 C 93.289062 30.277344 93.230469 29.921875 93.101562 29.589844 C 92.972656 29.261719 92.78125 28.957031 92.53125 28.703125 C 92.285156 28.449219 91.988281 28.246094 91.664062 28.109375 C 91.335938 27.972656 90.984375 27.902344 90.628906 27.90625 C 90.082031 27.886719 89.546875 28.035156 89.082031 28.324219 C 88.621094 28.617188 88.257812 29.039062 88.039062 29.539062 C 87.816406 30.039062 87.75 30.59375 87.847656 31.132812 C 87.945312 31.667969 88.199219 32.164062 88.582031 32.558594 C 88.960938 32.949219 89.449219 33.21875 89.984375 33.328125 C 90.519531 33.441406 91.074219 33.390625 91.578125 33.183594 C 92.082031 32.976562 92.515625 32.621094 92.816406 32.167969 C 93.121094 31.714844 93.28125 31.179688 93.277344 30.632812 Z M 93.277344 30.632812 " fill-opacity="1" fill-rule="nonzero"/><path fill="#353535" d="M 96.855469 26.195312 L 98.882812 26.195312 L 98.882812 27.511719 C 99.078125 27.085938 99.398438 26.730469 99.804688 26.492188 C 100.207031 26.257812 100.675781 26.152344 101.144531 26.195312 C 101.6875 26.179688 102.226562 26.308594 102.707031 26.570312 L 101.925781 28.515625 C 101.570312 28.265625 101.140625 28.140625 100.707031 28.167969 C 99.519531 28.167969 98.898438 28.789062 98.898438 30.328125 L 98.898438 35.042969 L 96.855469 35.042969 Z M 96.855469 26.195312 " fill-opacity="1" fill-rule="nonzero"/><path fill="#353535" d="M 102.386719 30.648438 C 102.378906 30.039062 102.492188 29.433594 102.71875 28.871094 C 102.945312 28.304688 103.28125 27.792969 103.707031 27.359375 C 104.136719 26.925781 104.644531 26.585938 105.207031 26.351562 C 105.769531 26.121094 106.371094 26 106.980469 26.003906 C 107.582031 25.988281 108.179688 26.097656 108.742188 26.320312 C 109.300781 26.546875 109.808594 26.882812 110.234375 27.308594 C 110.660156 27.738281 110.996094 28.246094 111.21875 28.808594 C 111.4375 29.371094 111.542969 29.972656 111.527344 30.574219 L 111.527344 31.34375 L 104.285156 31.34375 C 104.414062 31.960938 104.761719 32.507812 105.261719 32.890625 C 105.761719 33.273438 106.378906 33.464844 107.007812 33.433594 C 107.527344 33.449219 108.035156 33.304688 108.472656 33.027344 C 108.910156 32.746094 109.25 32.34375 109.457031 31.867188 L 111.136719 32.835938 C 110.75 33.59375 110.15625 34.222656 109.425781 34.648438 C 108.691406 35.074219 107.855469 35.28125 107.007812 35.246094 C 106.398438 35.261719 105.792969 35.15625 105.226562 34.933594 C 104.660156 34.707031 104.144531 34.371094 103.710938 33.941406 C 103.28125 33.511719 102.9375 32.996094 102.710938 32.429688 C 102.484375 31.863281 102.375 31.257812 102.386719 30.648438 Z M 104.429688 29.632812 L 109.457031 29.632812 C 109.332031 29.082031 109.011719 28.59375 108.558594 28.261719 C 108.101562 27.925781 107.539062 27.769531 106.980469 27.820312 C 106.414062 27.804688 105.863281 27.972656 105.402344 28.300781 C 104.945312 28.625 104.601562 29.09375 104.429688 29.632812 Z M 104.429688 29.632812 " fill-opacity="1" fill-rule="nonzero"/><path fill="#353535" d="M 112.0625 33.082031 L 113.945312 32.167969 C 114.136719 32.570312 114.441406 32.902344 114.816406 33.132812 C 115.195312 33.363281 115.632812 33.476562 116.074219 33.460938 C 117.085938 33.460938 117.523438 32.96875 117.523438 32.386719 C 117.523438 31.808594 116.550781 31.605469 115.464844 31.371094 C 114.015625 31.050781 112.367188 30.574219 112.367188 28.703125 C 112.367188 27.253906 113.742188 25.992188 115.84375 25.992188 C 116.554688 25.929688 117.269531 26.070312 117.90625 26.398438 C 118.542969 26.722656 119.078125 27.21875 119.449219 27.832031 L 117.710938 28.703125 C 117.519531 28.382812 117.242188 28.117188 116.914062 27.9375 C 116.585938 27.761719 116.214844 27.671875 115.84375 27.6875 C 114.871094 27.6875 114.394531 28.152344 114.394531 28.644531 C 114.394531 29.136719 115.089844 29.382812 116.40625 29.675781 C 117.726562 29.964844 119.519531 30.472656 119.519531 32.34375 C 119.480469 32.777344 119.355469 33.195312 119.152344 33.578125 C 118.945312 33.957031 118.664062 34.296875 118.328125 34.566406 C 117.988281 34.835938 117.601562 35.035156 117.183594 35.152344 C 116.765625 35.269531 116.328125 35.300781 115.898438 35.246094 C 115.105469 35.324219 114.308594 35.160156 113.605469 34.777344 C 112.90625 34.394531 112.339844 33.808594 111.976562 33.097656 " fill-opacity="1" fill-rule="nonzero"/><path fill="#56af08" d="M 0.578125 27.457031 L 0.578125 36.835938 C 0.570312 37.515625 0.726562 38.191406 1.042969 38.796875 C 1.355469 39.402344 1.8125 39.921875 2.378906 40.308594 C 3.035156 40.738281 3.800781 40.96875 4.589844 40.972656 L 5.304688 40.972656 L 5.304688 25.1875 C 5.304688 25.0625 5.347656 24.941406 5.421875 24.84375 C 5.496094 24.746094 5.601562 24.671875 5.71875 24.636719 C 4.703125 24.675781 3.707031 24.945312 2.816406 25.433594 C 1.921875 25.917969 1.15625 26.605469 0.578125 27.4375 " fill-opacity="1" fill-rule="nonzero"/><g clip-path="url(#9c10890315)"><path fill="#156d00" d="M 18.546875 27.015625 C 18.449219 26.851562 18.34375 26.695312 18.222656 26.546875 L 18.164062 26.46875 C 18.09375 26.378906 18.019531 26.292969 17.9375 26.214844 C 17.679688 25.945312 17.386719 25.714844 17.0625 25.527344 L 6.59375 19.511719 C 5.859375 19.085938 5.003906 18.90625 4.15625 18.996094 C 3.308594 19.089844 2.511719 19.449219 1.886719 20.019531 C 1.464844 20.414062 1.132812 20.886719 0.90625 21.414062 C 0.679688 21.941406 0.570312 22.511719 0.578125 23.082031 L 0.578125 27.457031 C 1.15625 26.625 1.921875 25.9375 2.816406 25.453125 C 3.707031 24.964844 4.703125 24.695312 5.71875 24.65625 C 5.863281 24.601562 6.027344 24.601562 6.171875 24.65625 L 12.601562 28.355469 C 12.679688 28.402344 12.746094 28.464844 12.796875 28.542969 C 12.855469 28.621094 12.894531 28.710938 12.917969 28.808594 C 12.9375 28.902344 12.9375 29.003906 12.914062 29.097656 C 12.910156 29.132812 12.910156 29.164062 12.914062 29.195312 C 14.546875 29.382812 17.074219 29.3125 18.8125 27.5625 C 18.742188 27.394531 18.664062 27.226562 18.578125 27.0625 " fill-opacity="1" fill-rule="nonzero"/></g><path fill="#2d9318" d="M 12.914062 29.148438 C 12.894531 29.230469 12.855469 29.308594 12.804688 29.378906 C 12.75 29.449219 12.6875 29.503906 12.609375 29.546875 L 7.46875 32.484375 L 7.273438 32.589844 L 7.273438 38.019531 L 7.84375 37.695312 L 16.925781 32.464844 C 17.570312 32.097656 18.101562 31.570312 18.476562 30.933594 C 18.847656 30.296875 19.046875 29.570312 19.050781 28.835938 C 19.054688 27.949219 18.734375 27.089844 18.15625 26.417969 C 16.453125 28.179688 14.546875 29.292969 12.914062 29.109375 " fill-opacity="1" fill-rule="nonzero"/><path fill="#ffffff" d="M 15.558594 22.847656 C 15.558594 23.316406 15.417969 23.777344 15.15625 24.167969 C 14.894531 24.558594 14.519531 24.863281 14.085938 25.042969 C 13.648438 25.222656 13.167969 25.269531 12.703125 25.179688 C 12.242188 25.085938 11.816406 24.859375 11.480469 24.527344 C 11.148438 24.195312 10.917969 23.773438 10.828125 23.3125 C 10.734375 22.851562 10.78125 22.371094 10.964844 21.9375 C 11.144531 21.503906 11.449219 21.132812 11.84375 20.871094 C 12.234375 20.609375 12.699219 20.472656 13.171875 20.472656 C 13.484375 20.46875 13.796875 20.53125 14.085938 20.648438 C 14.375 20.769531 14.640625 20.941406 14.863281 21.164062 C 15.085938 21.386719 15.261719 21.648438 15.378906 21.9375 C 15.5 22.226562 15.558594 22.535156 15.558594 22.847656 Z M 15.558594 22.847656 " fill-opacity="1" fill-rule="nonzero"/><path fill="#156d00" d="M 14.703125 22.847656 C 14.703125 23.148438 14.613281 23.445312 14.445312 23.695312 C 14.277344 23.945312 14.039062 24.140625 13.757812 24.257812 C 13.476562 24.375 13.167969 24.402344 12.871094 24.34375 C 12.574219 24.285156 12.300781 24.140625 12.085938 23.925781 C 11.871094 23.714844 11.726562 23.441406 11.667969 23.144531 C 11.605469 22.851562 11.636719 22.542969 11.753906 22.265625 C 11.871094 21.984375 12.066406 21.746094 12.320312 21.578125 C 12.570312 21.410156 12.867188 21.320312 13.171875 21.320312 C 13.578125 21.320312 13.96875 21.484375 14.253906 21.769531 C 14.542969 22.054688 14.703125 22.445312 14.703125 22.847656 Z M 14.703125 22.847656 " fill-opacity="1" fill-rule="nonzero"/><g clip-path="url(#da35face0e)"><g clip-path="url(#4bf09d3d48)"><path fill="#737357" d="M 11.195312 20.925781 L 15.113281 20.925781 L 15.113281 24.839844 L 11.195312 24.839844 Z M 11.195312 20.925781 " fill-opacity="1" fill-rule="evenodd"/><path fill="#4f5238" d="M 14.1875 21.722656 L 14.1875 21.980469 L 14.140625 22.246094 L 14.589844 22.246094 L 14.414062 22.097656 L 14.492188 21.554688 L 14.945312 21.554688 L 15.082031 21.320312 L 14.101562 21.320312 L 14.101562 21.605469 L 14.285156 21.78125 Z M 13.578125 22.5 L 12.746094 22.675781 L 12.882812 22.875 L 13.472656 22.714844 L 13.628906 22.714844 L 13.746094 23.023438 L 13.941406 22.960938 L 14.050781 22.441406 L 13.882812 22.441406 Z M 13.5 22.921875 L 12.597656 23.53125 L 12.785156 23.730469 L 13.394531 23.335938 L 13.394531 23.886719 L 13.214844 24.023438 L 14.109375 24.378906 L 14.023438 24.125 L 13.941406 23.867188 L 13.589844 23.75 L 13.441406 22.921875 Z M 11.921875 23.011719 L 12.390625 22.914062 L 12.597656 22.441406 L 13.234375 22.304688 L 13.234375 22.125 L 12.746094 22.019531 L 12.746094 22.246094 L 12.390625 22.3125 L 12.304688 22.628906 L 11.882812 22.804688 L 12.007812 23.011719 Z M 12.902344 20.925781 L 12.992188 21.308594 L 13.363281 21.308594 L 13.609375 20.90625 L 13.253906 20.90625 L 13.175781 21.003906 L 13.175781 20.90625 Z M 13.03125 24.410156 L 12.902344 23.976562 L 12.734375 24.074219 L 12.792969 24.359375 L 12.851562 24.652344 L 12.851562 24.839844 L 13.097656 24.839844 L 12.980469 24.410156 Z M 13.5 24.535156 L 13.253906 24.839844 L 13.609375 24.839844 L 13.71875 24.652344 L 13.472656 24.574219 Z M 11.859375 23.917969 L 11.203125 23.917969 L 11.203125 24.171875 L 11.273438 24.171875 L 11.410156 24.449219 L 11.605469 24.144531 L 11.980469 24.144531 L 11.859375 23.925781 Z M 14.808594 23.917969 L 14.914062 24.113281 L 15.140625 24.171875 L 15.140625 23.917969 Z M 11.457031 23.433594 L 11.695312 23.375 L 12.136719 23.796875 L 12.292969 23.640625 L 11.890625 23.257812 L 11.65625 23.082031 L 11.351562 23.140625 L 11.222656 23.328125 L 11.3125 23.710938 L 11.457031 23.40625 Z M 11.417969 23.023438 L 11.566406 22.824219 L 11.195312 22.824219 L 11.195312 23.050781 Z M 14.367188 22.777344 L 14.464844 23.023438 L 15.113281 23.023438 L 15.113281 22.765625 L 14.777344 22.765625 L 14.972656 22.597656 L 14.789062 22.371094 L 14.523438 22.429688 L 14.367188 22.726562 Z M 11.921875 21.28125 L 12.144531 21.28125 L 12.5 21.359375 L 12.441406 21.183594 L 12.203125 21.113281 L 12.117188 20.886719 L 11.921875 20.886719 L 12.027344 21.125 L 11.558594 21.125 L 11.320312 21.476562 L 11.558594 21.476562 L 11.929688 21.261719 Z M 12.292969 24.328125 L 11.714844 24.410156 L 11.910156 24.839844 L 12.117188 24.839844 L 12.058594 24.703125 Z M 12.292969 24.328125 " fill-opacity="1" fill-rule="evenodd"/><path fill="#3d3b2b" d="M 12.792969 24.339844 L 12.734375 24.054688 L 12.265625 23.621094 L 12.105469 23.777344 L 12.390625 24.074219 L 11.597656 24.074219 L 11.703125 24.320312 L 12.285156 24.242188 L 12.46875 24.242188 L 12.589844 24.488281 L 12.792969 24.289062 Z M 14.367188 22.726562 L 14.257812 22.480469 L 14.140625 22.804688 L 14.640625 23.632812 L 14.953125 23.632812 L 14.867188 23.355469 L 14.523438 23.207031 L 14.433594 22.960938 L 14.335938 22.714844 Z M 13.5 22.902344 L 13.648438 23.730469 L 14.003906 23.847656 L 13.941406 23.640625 L 13.941406 23.492188 L 13.882812 23.355469 L 13.972656 22.960938 L 13.777344 23.023438 L 13.660156 22.714844 L 13.5 22.714844 L 13.5 22.921875 Z M 11.625 23.0625 L 11.859375 23.238281 L 12.273438 23.148438 L 12.566406 23.070312 L 12.714844 23.226562 L 12.933594 23.070312 L 12.902344 22.875 L 12.765625 22.675781 L 12.667969 22.875 L 12.441406 22.875 L 11.96875 22.972656 L 11.644531 23.042969 Z M 13.265625 22.285156 L 13.609375 22.207031 L 13.609375 22.480469 L 13.914062 22.421875 L 13.960938 22.105469 L 13.738281 21.878906 L 13.5 21.988281 L 13.253906 22.105469 L 13.253906 22.285156 Z M 11.820312 22.785156 L 12.246094 22.609375 L 12.332031 22.292969 L 12.5 21.695312 L 12.273438 21.617188 L 12.183594 21.910156 L 12.105469 22.195312 L 12.039062 22.382812 L 11.695312 22.578125 Z M 11.546875 22.058594 L 11.234375 21.929688 L 11.234375 22.246094 L 11.332031 22.332031 L 11.234375 22.410156 L 11.234375 22.695312 L 11.605469 22.695312 L 11.449219 22.460938 L 11.882812 22.117188 L 11.585938 21.980469 Z M 14.972656 22.558594 L 14.777344 22.726562 L 15.113281 22.726562 L 15.113281 22.441406 L 14.972656 22.539062 Z M 14.972656 22.15625 L 15.113281 22.292969 L 15.113281 21.980469 Z M 12.65625 20.976562 L 12.871094 21.8125 L 13.492188 21.8125 L 13.492188 21.617188 L 13.019531 21.617188 L 12.960938 21.339844 L 12.902344 20.925781 L 12.707031 20.925781 L 12.65625 20.996094 Z M 12.851562 24.632812 L 12.707031 24.820312 L 12.902344 24.820312 L 12.902344 24.632812 Z M 11.300781 21.476562 L 11.539062 21.125 L 11.195312 21.125 L 11.195312 21.65625 L 11.300781 21.507812 Z M 11.398438 24.429688 L 11.261719 24.152344 L 11.195312 24.152344 L 11.195312 24.683594 L 11.519531 24.683594 L 11.398438 24.46875 Z M 14.109375 24.496094 L 14.109375 24.800781 L 14.699219 24.800781 L 14.699219 24.683594 L 15.152344 24.683594 L 15.152344 24.152344 L 14.867188 24.113281 L 14.972656 24.308594 L 15.074219 24.476562 L 14.089844 24.476562 Z M 14.042969 21.222656 L 15.023438 21.222656 L 14.886719 21.457031 L 14.660156 21.832031 L 14.828125 22 L 15.050781 21.664062 L 15.101562 21.59375 L 15.101562 21.066406 L 14.667969 21.066406 L 14.667969 20.90625 L 14.082031 20.90625 L 14.082031 21.242188 Z M 14.042969 21.222656 " fill-opacity="1" fill-rule="evenodd"/><path fill="#302e29" d="M 14.640625 23.652344 L 14.140625 22.824219 L 13.902344 23.511719 L 13.902344 23.660156 L 14.21875 23.347656 L 14.550781 23.984375 L 14.394531 24.261719 L 14.953125 24.261719 L 14.847656 24.0625 L 14.738281 23.867188 L 14.601562 23.601562 Z M 12.902344 23.976562 L 13.019531 24.40625 L 13.472656 24.308594 L 14.109375 24.535156 L 14.503906 24.535156 L 14.167969 24.339844 L 13.273438 23.984375 L 13.453125 23.847656 L 13.453125 23.632812 L 12.933594 23.9375 Z M 11.664062 23.355469 L 11.429688 23.414062 L 11.28125 23.71875 L 11.28125 23.898438 L 11.8125 23.898438 L 11.929688 24.113281 L 12.351562 24.113281 L 12.066406 23.816406 Z M 13.472656 22.695312 L 12.882812 22.855469 L 12.933594 23.070312 L 12.714844 23.226562 L 12.566406 23.070312 L 12.273438 23.148438 L 12.597656 23.511719 L 13.5 22.902344 L 13.5 22.695312 Z M 12.332031 22.292969 L 12.6875 22.226562 L 12.6875 22 L 13.175781 22.105469 L 13.421875 21.988281 L 13.421875 21.792969 L 12.804688 21.792969 L 12.429688 21.675781 L 12.265625 22.273438 Z M 12.039062 22.382812 L 12.105469 22.195312 L 11.910156 21.839844 L 11.546875 22.058594 L 11.839844 22.195312 L 11.410156 22.539062 L 11.566406 22.777344 L 11.417969 22.972656 L 11.320312 23.121094 L 11.625 23.0625 L 11.949219 22.992188 L 11.820312 22.785156 L 11.695312 22.578125 Z M 14.445312 21.507812 L 14.367188 22.046875 L 14.542969 22.195312 L 14.789062 22.371094 L 14.972656 22.558594 L 15.113281 22.460938 L 15.113281 22.292969 L 14.972656 22.15625 L 14.867188 22.046875 L 14.699219 21.878906 L 14.925781 21.507812 Z M 11.292969 22.371094 L 11.195312 22.285156 L 11.195312 22.449219 Z M 14.089844 24.695312 L 13.738281 24.585938 L 13.628906 24.773438 L 14.050781 24.773438 L 14.050781 24.652344 Z M 13.707031 21.871094 L 13.933594 22.097656 L 13.882812 22.410156 L 14.050781 22.410156 L 14.050781 22.253906 L 14.101562 21.988281 L 14.101562 21.734375 L 13.914062 21.554688 L 13.914062 20.9375 L 13.492188 20.9375 L 13.617188 21.105469 L 13.558594 21.644531 L 13.558594 21.910156 Z M 11.539062 21.46875 L 11.300781 21.46875 L 11.195312 21.613281 L 11.195312 21.695312 L 11.636719 21.695312 L 11.96875 21.417969 L 12.183594 21.851562 L 12.273438 21.554688 L 12.136719 21.242188 L 11.910156 21.242188 L 11.539062 21.457031 Z M 15.113281 21.613281 L 15.0625 21.683594 L 15.113281 21.683594 L 15.113281 21.605469 Z M 12.164062 21.125 L 12.402344 21.191406 L 12.285156 20.898438 L 12.078125 20.898438 Z M 12.46875 24.339844 L 12.285156 24.339844 L 12.046875 24.714844 L 12.105469 24.851562 L 12.3125 24.851562 L 12.589844 24.574219 Z M 12.46875 24.339844 " fill-opacity="1" fill-rule="evenodd"/></g></g></svg>