
<svg xmlns="http://www.w3.org/2000/svg" xmlns:xlink="http://www.w3.org/1999/xlink" width="160" zoomAndPan="magnify" viewBox="0 0 120 119.999999" height="160" preserveAspectRatio="xMidYMid meet" version="1.0"><defs><clipPath id="44338f3720"><path d="M 0 0 L 120 0 L 120 118.820312 L 0 118.820312 Z M 0 0 " clip-rule="nonzero"/></clipPath><clipPath id="6910ac26ed"><path d="M 35.25 0 L 84.75 0 C 94.097656 0 103.066406 3.714844 109.675781 10.324219 C 116.285156 16.933594 120 25.902344 120 35.25 L 120 83.570312 C 120 92.917969 116.285156 101.882812 109.675781 108.496094 C 103.066406 115.105469 94.097656 118.820312 84.75 118.820312 L 35.25 118.820312 C 25.902344 118.820312 16.933594 115.105469 10.324219 108.496094 C 3.714844 101.882812 0 92.917969 0 83.570312 L 0 35.25 C 0 25.902344 3.714844 16.933594 10.324219 10.324219 C 16.933594 3.714844 25.902344 0 35.25 0 Z M 35.25 0 " clip-rule="nonzero"/></clipPath><clipPath id="2883b70a5a"><path d="M 24.054688 84 L 35 84 L 35 94.113281 L 24.054688 94.113281 Z M 24.054688 84 " clip-rule="nonzero"/></clipPath></defs><g clip-path="url(#44338f3720)"><g clip-path="url(#6910ac26ed)"><path fill="#254a15" d="M 0 0 L 120.210938 0 L 120.210938 118.820312 L 0 118.820312 Z M 0 0 " fill-opacity="1" fill-rule="nonzero"/></g></g><path fill="#ffffff" d="M 95.238281 41.226562 C 95.238281 41.226562 92.890625 39.636719 92.210938 41.148438 C 92.210938 41.148438 91.605469 42.285156 89.789062 42.585938 C 89.789062 42.585938 85.25 42.664062 83.207031 42.132812 C 81.164062 41.601562 77.457031 42.285156 77.230469 42.285156 C 77.003906 42.285156 74.128906 41.980469 73.671875 41.832031 C 73.21875 41.679688 73.21875 41.601562 72.6875 41.753906 C 72.6875 41.753906 71.933594 40.847656 70.496094 40.695312 C 70.496094 40.695312 68.601562 39.789062 66.789062 39.710938 C 66.789062 39.710938 66.183594 39.484375 66.105469 39.332031 C 66.03125 39.183594 65.121094 39.257812 64.667969 39.410156 C 64.667969 39.410156 62.472656 39.484375 62.398438 37.140625 C 62.398438 37.140625 62.625 34.867188 62.703125 34.71875 C 62.703125 34.71875 63.910156 34.035156 63.988281 32.824219 C 63.988281 32.824219 64.140625 32.21875 63.535156 32.21875 C 63.535156 32.21875 64.214844 29.570312 63.304688 28.589844 C 63.199219 28.472656 63.117188 28.382812 63.058594 28.316406 C 62.898438 28.179688 62.707031 27.996094 62.625 27.832031 C 62.625 27.832031 62.625 27.527344 62.851562 27.527344 C 62.851562 27.527344 62.246094 26.546875 61.71875 26.394531 C 61.1875 26.242188 60.960938 26.320312 60.65625 26.089844 C 60.355469 25.863281 59.070312 26.167969 58.992188 26.242188 C 58.917969 26.320312 58.3125 26.773438 58.160156 26.773438 C 58.011719 26.773438 57.101562 27.679688 57.175781 27.832031 C 57.253906 27.984375 57.253906 28.058594 57.027344 28.210938 C 56.699219 28.566406 56.445312 28.96875 56.269531 29.421875 C 56.152344 29.710938 55.96875 29.800781 55.96875 29.800781 C 56.269531 29.949219 56.117188 30.933594 56.117188 30.933594 C 55.816406 33.582031 56.117188 35.472656 56.117188 35.472656 C 56.722656 36.761719 56.648438 36.761719 56.648438 36.761719 C 55.96875 36.609375 55.96875 37.367188 55.96875 37.367188 C 55.738281 38.121094 55.132812 37.746094 55.058594 37.894531 C 54.984375 38.046875 54.757812 38.046875 54.378906 38.351562 C 54 38.652344 52.636719 38.726562 52.636719 38.726562 C 51.957031 39.410156 50.820312 38.953125 50.820312 38.953125 C 49.308594 38.953125 46.28125 40.769531 46.28125 40.769531 C 43.859375 42.511719 43.707031 42.511719 43.332031 42.8125 C 42.953125 43.117188 41.4375 44.101562 41.4375 44.101562 C 41.4375 44.101562 39.621094 44.628906 39.394531 45.386719 C 39.167969 46.144531 38.941406 46.292969 38.941406 46.292969 C 38.035156 46.597656 37.351562 47.429688 37.351562 47.429688 C 35.6875 49.777344 32.886719 52.121094 32.433594 52.195312 C 31.980469 52.273438 31.300781 52.878906 31.300781 52.878906 C 31.332031 53.203125 31.230469 53.480469 30.996094 53.710938 C 30.617188 54.089844 30.996094 54.40625 30.996094 54.40625 C 30.996094 54.40625 30.542969 54.996094 30.996094 55.222656 C 31.125 55.28125 31.21875 55.378906 31.277344 55.507812 C 31.332031 55.636719 31.339844 55.769531 31.300781 55.90625 C 31.375 56.511719 33.039062 56.660156 33.265625 56.433594 C 33.492188 56.207031 34.097656 55.980469 34.097656 55.980469 C 34.386719 55.777344 34.539062 55.5 34.554688 55.148438 C 35.460938 54.695312 34.628906 54.089844 34.628906 54.089844 C 36.367188 51.96875 38.941406 50.835938 39.546875 50.609375 C 40.152344 50.378906 41.894531 48.941406 41.894531 48.941406 C 42.648438 49.171875 43.40625 48.335938 43.40625 48.335938 C 44.085938 48.414062 44.390625 47.882812 44.542969 47.65625 C 44.691406 47.429688 45.675781 46.898438 45.675781 46.898438 C 45.675781 46.898438 47.417969 46.898438 47.871094 46.597656 C 48.324219 46.292969 49.6875 46.144531 49.6875 46.144531 C 49.6875 46.144531 50.140625 49.09375 49.382812 50.425781 C 48.628906 51.757812 49.382812 52.574219 49.382812 52.574219 C 48.628906 53.40625 49.082031 54.011719 49.082031 54.15625 C 49.082031 54.296875 49.535156 55.222656 49.082031 55.375 C 48.628906 55.527344 47.945312 56.207031 47.792969 57.34375 C 47.644531 58.476562 47.492188 58.25 47.039062 58.703125 C 46.855469 58.886719 46.820312 59.191406 46.820312 59.472656 C 46.8125 59.898438 46.886719 60.277344 46.660156 60.140625 C 46.28125 59.914062 45.675781 60.671875 45.675781 60.746094 C 45.675781 60.824219 45.980469 61.503906 45.222656 61.578125 C 44.464844 61.65625 44.085938 62.789062 44.085938 62.789062 C 44.085938 62.789062 43.558594 63.621094 43.179688 63.773438 C 43.179688 63.773438 42.800781 63.925781 42.800781 64.226562 C 42.800781 64.226562 42.195312 64.378906 41.96875 64.832031 C 41.96875 64.832031 40.832031 64.910156 40.832031 65.894531 C 40.832031 65.894531 38.488281 67.558594 37.429688 68.996094 C 37.429688 68.996094 37.050781 67.558594 38.867188 67.027344 C 38.867188 67.027344 40 63.699219 34.78125 65.136719 C 34.78125 65.136719 29.632812 66.574219 32.886719 69.296875 C 32.886719 69.296875 31.675781 71.945312 32.8125 73.308594 C 32.8125 73.308594 31.753906 74.746094 33.191406 76.109375 C 34.628906 77.46875 36.519531 77.394531 37.503906 76.636719 C 38.488281 75.878906 43.707031 72.703125 45.070312 72.628906 C 45.070312 72.628906 45.523438 72.398438 45.902344 73.609375 C 45.902344 73.609375 46.054688 73.835938 46.355469 73.382812 C 46.660156 72.929688 47.417969 72.023438 47.871094 72.023438 C 48.324219 72.023438 50.671875 69.980469 50.671875 69.980469 C 50.855469 70.019531 51.035156 69.996094 51.203125 69.910156 C 51.375 69.824219 51.5 69.695312 51.578125 69.523438 C 51.578125 69.523438 51.878906 73.835938 51.652344 74.519531 C 51.425781 75.199219 51.277344 75.878906 51.277344 75.878906 C 51.277344 75.878906 50.519531 76.257812 50.820312 76.863281 C 50.386719 77.691406 49.808594 78.398438 49.082031 78.984375 C 47.871094 79.964844 46.433594 81.480469 45.523438 84.734375 C 45.523438 84.734375 43.40625 88.59375 42.496094 89.347656 C 42.496094 89.347656 40.910156 90.105469 40.683594 91.847656 C 40.683594 91.847656 37.429688 94.191406 42.269531 93.964844 C 47.113281 93.738281 48.398438 94.417969 46.886719 93.132812 C 46.886719 93.132812 45.140625 92.585938 44.617188 91.867188 C 45.214844 91.902344 45.75 91.820312 45.75 91.621094 C 45.75 91.449219 45.074219 91.109375 44.734375 90.949219 C 44.945312 90.660156 45.316406 90.25 45.980469 89.726562 C 46.179688 89.679688 46.378906 89.65625 46.585938 89.652344 C 46.886719 89.652344 54 82.386719 54 80.34375 C 54 80.34375 54.226562 79.4375 54.757812 79.058594 C 55.285156 78.679688 55.589844 78.757812 55.285156 77.921875 C 55.285156 77.921875 55.738281 77.394531 55.816406 77.089844 C 55.816406 77.089844 57.175781 77.167969 57.480469 76.941406 C 57.78125 76.714844 59.070312 76.636719 59.070312 76.636719 C 59.070312 76.636719 60.128906 76.484375 60.355469 75.046875 C 60.582031 73.609375 60.582031 69.902344 61.035156 68.691406 C 61.035156 68.691406 61.261719 67.632812 61.492188 67.558594 C 61.71875 67.480469 61.792969 66.648438 61.792969 66.574219 C 61.792969 66.496094 62.472656 64.605469 62.550781 64.53125 C 62.625 64.453125 62.625 63.546875 62.398438 63.320312 C 62.398438 63.320312 63.457031 62.714844 63.535156 60.367188 C 63.535156 60.367188 62.777344 58.714844 63.535156 57.574219 C 63.535156 57.574219 63.832031 57.015625 64.140625 56.285156 C 64.492188 55.453125 64.859375 54.394531 64.820312 53.710938 C 64.820312 53.710938 64.972656 52.273438 65.347656 51.894531 C 65.726562 51.515625 65.5 50.003906 65.878906 49.324219 C 66.257812 48.640625 66.789062 46.976562 67.621094 46.75 C 68.453125 46.523438 68.753906 46.675781 68.753906 46.675781 C 68.753906 46.675781 68.980469 46.675781 69.664062 46.21875 C 70.34375 45.765625 70.796875 46.449219 70.796875 46.449219 C 70.796875 46.449219 71.480469 46.75 72.007812 46.597656 C 72.539062 46.449219 73.597656 47.054688 73.75 47.054688 C 73.898438 47.054688 78.820312 47.203125 79.652344 46.523438 C 79.652344 46.523438 82.980469 46.824219 86.15625 45.917969 C 88.097656 45.367188 90.066406 44.9375 92.058594 44.632812 C 92.058594 44.632812 93.574219 44.101562 93.875 43.117188 C 93.875 43.117188 94.480469 43.800781 94.859375 43.195312 C 95.238281 42.589844 95.917969 41.90625 95.238281 41.226562 Z M 44.542969 91.542969 C 44.542969 91.542969 44.515625 91.550781 44.476562 91.5625 C 44.46875 91.53125 44.464844 91.5 44.464844 91.46875 C 44.484375 91.378906 44.515625 91.296875 44.5625 91.21875 L 44.617188 91.242188 C 45.980469 91.769531 44.542969 91.542969 44.542969 91.542969 Z M 44.542969 91.542969 " fill-opacity="1" fill-rule="nonzero"/><g clip-path="url(#2883b70a5a)"><path fill="#ffffff" d="M 34.0625 89.160156 C 34.0625 89.488281 34.027344 89.8125 33.964844 90.132812 C 33.902344 90.457031 33.804688 90.769531 33.679688 91.070312 C 33.554688 91.375 33.402344 91.660156 33.21875 91.933594 C 33.039062 92.207031 32.832031 92.460938 32.597656 92.691406 C 32.367188 92.921875 32.113281 93.128906 31.839844 93.3125 C 31.570312 93.496094 31.28125 93.648438 30.976562 93.773438 C 30.675781 93.898438 30.363281 93.992188 30.042969 94.058594 C 29.71875 94.121094 29.394531 94.152344 29.066406 94.152344 C 28.738281 94.152344 28.414062 94.121094 28.09375 94.058594 C 27.769531 93.992188 27.457031 93.898438 27.15625 93.773438 C 26.851562 93.648438 26.566406 93.496094 26.292969 93.3125 C 26.019531 93.128906 25.765625 92.921875 25.535156 92.691406 C 25.304688 92.460938 25.097656 92.207031 24.914062 91.933594 C 24.734375 91.660156 24.578125 91.375 24.453125 91.070312 C 24.328125 90.769531 24.234375 90.457031 24.167969 90.132812 C 24.105469 89.8125 24.074219 89.488281 24.074219 89.160156 C 24.074219 88.832031 24.105469 88.507812 24.167969 88.183594 C 24.234375 87.863281 24.328125 87.550781 24.453125 87.25 C 24.578125 86.945312 24.734375 86.65625 24.914062 86.386719 C 25.097656 86.113281 25.304688 85.859375 25.535156 85.628906 C 25.765625 85.394531 26.019531 85.1875 26.292969 85.007812 C 26.566406 84.824219 26.851562 84.671875 27.15625 84.546875 C 27.457031 84.421875 27.769531 84.324219 28.09375 84.261719 C 28.414062 84.199219 28.738281 84.164062 29.066406 84.164062 C 29.394531 84.164062 29.71875 84.199219 30.042969 84.261719 C 30.363281 84.324219 30.675781 84.421875 30.976562 84.546875 C 31.28125 84.671875 31.570312 84.824219 31.839844 85.007812 C 32.113281 85.1875 32.367188 85.394531 32.597656 85.628906 C 32.832031 85.859375 33.039062 86.113281 33.21875 86.386719 C 33.402344 86.65625 33.554688 86.945312 33.679688 87.25 C 33.804688 87.550781 33.902344 87.863281 33.964844 88.183594 C 34.027344 88.507812 34.0625 88.832031 34.0625 89.160156 Z M 34.0625 89.160156 " fill-opacity="1" fill-rule="nonzero"/></g></svg>