
<svg xmlns="http://www.w3.org/2000/svg" xmlns:xlink="http://www.w3.org/1999/xlink" width="160" zoomAndPan="magnify" viewBox="0 0 120 119.999999" height="160" preserveAspectRatio="xMidYMid meet" version="1.0"><defs><clipPath id="0f15f4a710"><path d="M 0 0 L 120 0 L 120 118.820312 L 0 118.820312 Z M 0 0 " clip-rule="nonzero"/></clipPath><clipPath id="07f18a33cd"><path d="M 35.25 0 L 84.75 0 C 94.097656 0 103.066406 3.714844 109.675781 10.324219 C 116.285156 16.933594 120 25.902344 120 35.25 L 120 83.570312 C 120 92.917969 116.285156 101.882812 109.675781 108.496094 C 103.066406 115.105469 94.097656 118.820312 84.75 118.820312 L 35.25 118.820312 C 25.902344 118.820312 16.933594 115.105469 10.324219 108.496094 C 3.714844 101.882812 0 92.917969 0 83.570312 L 0 35.25 C 0 25.902344 3.714844 16.933594 10.324219 10.324219 C 16.933594 3.714844 25.902344 0 35.25 0 Z M 35.25 0 " clip-rule="nonzero"/></clipPath><clipPath id="f51bc0f0f9"><path d="M 38 43.800781 L 80 43.800781 L 80 84 L 38 84 Z M 38 43.800781 " clip-rule="nonzero"/></clipPath><clipPath id="564094f786"><path d="M 30 74 L 101.507812 74 L 101.507812 89 L 30 89 Z M 30 74 " clip-rule="nonzero"/></clipPath><clipPath id="9baad8a27d"><path d="M 17.507812 80 L 73 80 L 73 91.800781 L 17.507812 91.800781 Z M 17.507812 80 " clip-rule="nonzero"/></clipPath></defs><g clip-path="url(#0f15f4a710)"><g clip-path="url(#07f18a33cd)"><path fill="#4b8400" d="M 0 0 L 120.210938 0 L 120.210938 118.820312 L 0 118.820312 Z M 0 0 " fill-opacity="1" fill-rule="nonzero"/></g></g><g clip-path="url(#f51bc0f0f9)"><path fill="#ffffff" d="M 48.300781 43.933594 L 48.148438 43.925781 C 44.839844 43.847656 42.238281 44.433594 40.339844 45.683594 C 38.652344 47.101562 38.304688 48.691406 39.296875 50.449219 C 39.886719 51.417969 40.886719 52.242188 42.289062 52.914062 L 61.523438 57.535156 L 63.417969 68.929688 C 59.410156 69.46875 56.347656 70.039062 54.230469 70.644531 C 52.117188 71.261719 50.773438 71.734375 50.199219 72.070312 C 49.957031 72.203125 49.957031 72.410156 50.199219 72.695312 C 53.660156 73.605469 63.359375 77.050781 79.289062 83.027344 C 79.421875 83.046875 79.480469 83.003906 79.472656 82.902344 L 72.675781 60.65625 L 70.1875 50.675781 C 69.96875 49.972656 69.707031 49.40625 69.394531 48.980469 L 68.890625 48.445312 C 64.800781 47.25 61.175781 46.289062 58.011719 45.5625 C 52.789062 44.449219 49.550781 43.910156 48.300781 43.933594 " fill-opacity="1" fill-rule="nonzero"/></g><g clip-path="url(#564094f786)"><path fill="#ffffff" d="M 101.613281 75.683594 L 101.597656 75.695312 C 99.054688 78.167969 95.882812 80.28125 92.09375 82.039062 C 88.960938 83.394531 85.863281 84.089844 82.796875 84.132812 C 80.082031 84.308594 77.183594 83.976562 74.101562 83.140625 C 72.84375 82.789062 71.925781 82.503906 71.351562 82.28125 L 63.480469 79.1875 C 59.878906 77.886719 57.328125 76.992188 55.828125 76.503906 C 53.347656 75.695312 51.230469 75.214844 49.472656 75.066406 C 48.488281 74.921875 46.902344 74.964844 44.714844 75.195312 C 43.203125 75.351562 41.730469 75.625 40.304688 76.019531 C 37.871094 76.671875 35.566406 77.789062 33.378906 79.367188 C 32.050781 80.539062 31.257812 81.410156 30.996094 81.988281 C 33.695312 80.824219 35.402344 80.128906 36.125 79.902344 C 37.355469 79.484375 38.609375 79.164062 39.894531 78.945312 C 42.941406 78.445312 45.957031 78.441406 48.941406 78.9375 C 50.140625 79.171875 51.464844 79.578125 52.917969 80.164062 L 63.5625 84.832031 C 65.421875 85.597656 66.96875 86.167969 68.207031 86.539062 C 72.410156 87.839844 76.363281 88.410156 80.0625 88.246094 C 84.71875 87.996094 88.757812 86.859375 92.175781 84.835938 C 95.007812 83.324219 98.152344 80.273438 101.613281 75.683594 " fill-opacity="1" fill-rule="nonzero"/></g><g clip-path="url(#9baad8a27d)"><path fill="#ffffff" d="M 45.445312 80.578125 L 45.296875 80.566406 C 42.878906 80.445312 40.175781 81.027344 37.183594 82.320312 C 36.496094 82.621094 35.757812 82.988281 34.96875 83.425781 L 27.660156 87.902344 C 26.132812 88.761719 25.035156 89.316406 24.375 89.558594 C 23.363281 89.921875 22.527344 90.15625 21.867188 90.269531 C 21.300781 90.40625 20.050781 90.523438 18.113281 90.621094 C 17.917969 90.644531 17.78125 90.710938 17.703125 90.824219 C 17.644531 90.84375 17.574219 90.839844 17.496094 90.820312 C 18.628906 91.402344 20.019531 91.757812 21.679688 91.882812 C 23.261719 91.980469 24.867188 91.78125 26.492188 91.285156 L 28.148438 90.730469 L 29.375 90.246094 L 36.863281 86.824219 C 37.226562 86.664062 37.671875 86.488281 38.191406 86.300781 C 40.191406 85.636719 41.949219 85.285156 43.464844 85.25 C 45.3125 85.25 46.480469 85.265625 46.964844 85.296875 C 47.808594 85.351562 48.488281 85.441406 49.007812 85.558594 C 49.335938 85.632812 49.949219 85.816406 50.855469 86.109375 L 59.824219 89.128906 C 61.207031 89.527344 62.765625 89.898438 64.507812 90.234375 C 67.632812 90.78125 70.308594 90.917969 72.535156 90.644531 C 72.5625 90.632812 72.449219 90.609375 72.195312 90.578125 C 71.714844 90.332031 71.164062 90.101562 70.550781 89.886719 L 66.101562 88.441406 C 65.976562 88.414062 64.785156 87.945312 62.527344 87.042969 C 61.640625 86.671875 61 86.394531 60.601562 86.207031 L 53.113281 82.652344 C 51.769531 82.035156 50.898438 81.65625 50.503906 81.523438 C 49.183594 81.070312 47.496094 80.753906 45.445312 80.578125 " fill-opacity="1" fill-rule="nonzero"/></g><path fill="#ffffff" d="M 98.785156 68.414062 L 98.59375 69.78125 C 97.964844 72.515625 96.53125 74.632812 94.292969 76.144531 C 92.039062 77.648438 89.476562 78.144531 86.605469 77.628906 C 83.871094 77 81.75 75.566406 80.242188 73.328125 C 79.757812 72.605469 79.375 71.828125 79.085938 70.996094 L 78.738281 69.714844 C 78.5625 68.839844 78.503906 67.9375 78.566406 67.003906 C 78.839844 64.144531 79.992188 61.832031 82.027344 60.0625 C 84.0625 58.292969 86.511719 57.472656 89.378906 57.601562 C 92.238281 57.875 94.554688 59.027344 96.320312 61.0625 C 98.089844 63.09375 98.910156 65.546875 98.785156 68.414062 " fill-opacity="1" fill-rule="nonzero"/></svg>